<?xml version="1.0" encoding="utf-8"?>
<!-- Generator: Adobe Illustrator 24.0.0, SVG Export Plug-In . SVG Version: 6.00 Build 0)  -->
<svg version="1.1" xmlns="http://www.w3.org/2000/svg" xmlns:xlink="http://www.w3.org/1999/xlink" x="0px" y="0px"
	 viewBox="0 0 783 603" style="enable-background:new 0 0 783 603;" xml:space="preserve">
<style type="text/css">
	.st0{fill:#F7F8F9;stroke:#979696;stroke-width:0.75;stroke-miterlimit:10;}
	.st1{fill:#242424;stroke:#C1BEBE;stroke-width:0.75;stroke-miterlimit:10;}
	.st2{fill:#242424;stroke:#979696;stroke-width:0.75;stroke-miterlimit:10;}
	.st3{fill:#013D59;stroke:#072236;stroke-width:0.75;stroke-miterlimit:10;}
	.st4{fill:#F8C899;stroke:#CA8E52;stroke-miterlimit:10;}
	.st5{fill:#371C11;stroke:#1E110F;stroke-miterlimit:10;}
	.st6{fill:#F8C899;stroke:#CA8E52;stroke-width:0.75;stroke-miterlimit:10;}
	.st7{fill:#FFFFFF;stroke:#9F9D9C;stroke-width:0.75;stroke-miterlimit:10;}
	.st8{fill:#0170B2;stroke:#0B212F;stroke-width:0.75;stroke-miterlimit:10;}
	.st9{fill:#F7F8F9;stroke:#A3A4A6;stroke-width:0.75;stroke-miterlimit:10;}
	.st10{fill:none;stroke:#F0F0F0;stroke-miterlimit:10;}
	.st11{fill:url(#eye_2_with_gloss_1_);stroke:#050606;stroke-width:0.75;stroke-miterlimit:10;}
	.st12{fill:url(#eyes_with_gloss_1_);stroke:#050606;stroke-width:0.75;stroke-miterlimit:10;}
	.st13{opacity:0.35;fill:none;stroke:#050606;stroke-width:0.75;stroke-miterlimit:10;}
	.st14{fill:#3F2313;stroke:#1E110F;stroke-miterlimit:10;}
	.st15{fill:url(#SVGID_1_);}
	.st16{fill:#CA8E52;stroke:#CA8E52;stroke-miterlimit:10;}
	.st17{fill:none;stroke:#1E110F;stroke-miterlimit:10;}
	.st18{fill:#B7B8BA;stroke:#6C6C6C;stroke-miterlimit:10;}
	.st19{fill:url(#SVGID_2_);stroke:#6C6C6C;stroke-miterlimit:10;}
	.st20{fill:url(#SVGID_3_);stroke:#6C6C6C;stroke-miterlimit:10;}
	.st21{fill:url(#SVGID_4_);stroke:#6C6C6C;stroke-miterlimit:10;}
	.st22{fill:url(#SVGID_5_);stroke:#6C6C6C;stroke-miterlimit:10;}
	.st23{fill:url(#SVGID_6_);stroke:#6C6C6C;stroke-miterlimit:10;}
	.st24{fill:url(#SVGID_7_);stroke:#6C6C6C;stroke-miterlimit:10;}
	.st25{fill:url(#SVGID_8_);stroke:#767473;stroke-miterlimit:10;}
	.st26{fill:#B1B1B3;stroke:#767473;stroke-miterlimit:10;}
	.st27{fill:#F0F0F0;stroke:#767473;stroke-miterlimit:10;}
	.st28{fill:none;stroke:#050606;stroke-width:0.5;stroke-miterlimit:10;}
	.st29{fill:#F8AF26;stroke:#E35D25;stroke-miterlimit:10;}
	.st30{fill:#050606;stroke:#262626;stroke-width:0.5;stroke-miterlimit:10;}
	.st31{fill:#F8AF26;stroke:#E35D25;stroke-width:0.5;stroke-miterlimit:10;}
	.st32{fill:none;stroke:#E35D25;stroke-width:0.5;stroke-miterlimit:10;}
	.st33{fill:#050606;stroke:#E35D25;stroke-width:0.5;stroke-miterlimit:10;}
	.st34{fill:none;stroke:#CA8E52;stroke-miterlimit:10;}
</style>
<g id="main_body">
	<path class="st0" d="M482.77,510.73c0,0,8.1,4.1,9.67,11.75c0.06,0.31,0.11,0.6,0.14,0.89c0.72,6.95-7.57,9.25-7.57,9.25
		s-13.24,3.66-40.28,0l-40-6.15c-0.31-0.44-0.77-1.21-1.01-2.27c-0.26-1.18-0.12-2.17,0-2.72c0.54,0.13,1.08,0.26,1.62,0.39
		l2.23,0.29c7.84,1.22,16.06,2.31,24.64,3.21c10.58,1.1,20.7,1.81,30.29,2.21c2.53,0.23,5.29,0.34,8.23,0.26
		c8.59-0.24,15.86-2.04,21.38-3.98C492.1,523.87,493.94,517.72,482.77,510.73z"/>
	<path class="st1" d="M462.43,501.07c0,0-24.63-5.02-57.87,20.77c9.32,1.21,17.52,2.26,24.32,3.13c6.98,0.89,9.84,1.24,13.82,1.56
		c8.26,0.66,15.06,0.67,19.64,0.56c0.26-1.49,1.51-7.63,7.28-12.17c5.53-4.35,11.55-4.35,13.15-4.3
		C482.77,510.62,476.63,505.42,462.43,501.07z"/>
	<path class="st0" d="M301.25,509.49c0,0-8.04,4.1-9.59,11.75c-0.06,0.31-0.11,0.6-0.14,0.89c-0.72,6.95,7.51,9.25,7.51,9.25
		s13.14,3.66,39.96,0l39.68-6.15c0.31-0.44,0.76-1.21,1-2.27c0.26-1.18,0.12-2.17,0-2.72c-0.54,0.13-1.07,0.26-1.61,0.39l-2.21,0.29
		c-7.77,1.22-15.93,2.31-24.45,3.21c-10.5,1.1-20.53,1.81-30.04,2.21c-2.51,0.23-5.25,0.34-8.17,0.26
		c-8.52-0.24-15.73-2.04-21.21-3.98C292,522.62,290.17,516.47,301.25,509.49z"/>
	<path class="st2" d="M321.23,499.82c0,0,24.2-5.02,56.84,20.77c-9.16,1.21-17.2,2.26-23.89,3.13c-6.85,0.89-9.67,1.24-13.58,1.56
		c-8.11,0.66-14.79,0.67-19.29,0.56c-0.26-1.49-1.48-7.63-7.15-12.17c-5.44-4.35-11.35-4.35-12.91-4.3
		C301.25,509.37,307.29,504.18,321.23,499.82z"/>
	<path id="pants" class="st3" d="M327.97,427.07l125.87,1.77c0,0,2.38,63.85,7.65,67.84l1.05,3.77c0,0-21.5-0.44-36.8,9.09
		c-15.3,9.53-21.06,12.19-21.06,12.19c-0.98-0.43-2.32-1.22-3.1-2.66c-1.48-2.71,0.67-4.72,0-9.09c-0.5-3.27-1.9-3.4-2.44-6.87
		c-0.54-3.5,0.42-6.27,0.66-7.1c2.66-9.21-3.54-56.63-8.29-56.39c-3.93,0.19-12.19,33.25-8.77,58.62
		c1.55,11.53,0.44,23.94-4.66,22.39c-5.1-1.55-19.29-14.85-47-20.84l-9.84,0.22c0,0-2.65-3.99,1.82-8.65
		c4.47-4.66-3.73,1.11,4.92-61.52C336.61,367.22,327.97,427.07,327.97,427.07z"/>
	<path class="st3" d="M388.6,429.53v1.97c0,0,7.57-1.27,7.79-2.27C396.61,428.23,388.6,429.53,388.6,429.53z"/>
	<path class="st4" d="M266.12,231.82v31.26c0,0,3.59,44.57,49.88,51.05c15.46,2.16,23.11,2,23.11,2l100.26,1.16
		c0,0,75.99,2,75.99-54.2l1.33-33.92c0,0-3.33-5.32-4.99-21.28c-1.66-15.96-4.82-33.09-5.32-36.58c-0.5-3.49-7.98-27.93-34.42-32.92
		l-13.63-0.67c0,0-21.45,4.66-33.09,4.82c-11.64,0.17-82.47,0.17-82.47,0.17l-38.08-1c0,0-19.45,1-24.44,18.79l-3.99,28.43
		l-2.66,23.94C273.6,212.86,269.11,230.15,266.12,231.82z"/>
	<path class="st4" d="M266.12,211.53v51.54c0,0-10.48-1.16-12.8-19.29V227.5C253.31,227.5,255.97,211.86,266.12,211.53z"/>
	<path class="st4" d="M516.69,211.53c0,0,12.8-0.33,14.13,19.12v13.63c0,0-1.66,16.29-15.46,18.79L516.69,211.53z"/>
	<path class="st5" d="M516.69,229.16h2.33c0,0,6.15-58.03,1.5-75.32s-3.49-29.26-30.43-44.73c0,0-15.13-2.99-26.6-12.64
		c0,0-13.14-6.15-23.61-6.65c-2.69,0.08-5.52,0.09-8.48,0c-4.58-0.14-8.86-0.5-12.8-1c-5.43,0.06-10.86,0.11-16.29,0.17
		c-1.54-1.23-4.07-2.95-7.54-4.07c-4.83-1.55-8.86-1.1-11.91-0.75c-2.69,0.31-6.73,1.07-11.31,3.18c-7.54,0.1-15.08,0.21-22.61,0.31
		c-1.11,0.03-2.31,0.13-3.6,0.33c-3.54,0.56-6.42,1.73-8.54,2.83l0,0c-5.04,0.17-10.09,0.33-15.13,0.5
		c-2.34,0.35-5.08,0.97-8.04,2.08c-6.35,2.38-10.83,5.95-13.57,8.56c-1.88,0.83-3.77,1.66-5.65,2.49c0,0-31.92,13.97-32.76,52.87
		l2.33,74.99l2.16-0.5c0,0,7.81-5.99,10.14-42.9c0,0,5.15-44.06,28.43-47.22l123.54,2c4.21-0.83,8.42-1.66,12.64-2.49
		c5.83-1.16,11.65-2.32,17.46-3.49l13.63,0.67c0,0,36.56,5.84,39.89,70.92C511.85,209.3,511.7,222.01,516.69,229.16z"/>
	<path class="st4" d="M365.72,316.42c0,0,7.48,6.84,24.94,6.84c0,0,15.63,0.68,26.1-5.98L365.72,316.42z"/>
	<path class="st4" d="M283.74,384.12l33.25,7.48l-3.82,5.99c0,0-2.49,2.66,0.67,5.99c3.16,3.33,5.15,6.98,5.15,10.14
		s1.5,12.47,3.33,13.63c1.83,1.16-0.17,4.99-1.5,5.15c-1.33,0.17-5.49,2.33-11.14-9.48c0,0-3.09-3.33-6.28,6.65v9.14
		c0,0,0.8,5.65,2.79,7.32c2,1.66,0.33,4.49-1.5,4.32c-1.83-0.17-9.31,0.01-9.31,0.01s-15.8-9.32-16.46-25.78v-10.31
		c0,0,0.33-9.14,4.66-11.81L283.74,384.12z"/>
	<path class="st6" d="M300.2,450.4c0,0-5.99-2.09-8.81-21.55"/>
	<path class="st6" d="M291.39,447.55c0,0-7.81-13.05-7.48-18.7"/>
	<path class="st4" d="M466.63,389.73c11.14-2.31,22.29-4.63,33.43-6.94v20.45c0,0,4.66,4.99,4.16,19.62
		c-0.1,3.02-0.14,6.6-1.69,10.96c-3.16,8.91-9.85,13.87-11.61,15.14c-0.88,0.64-1.64,1.12-2.16,1.43
		c-3.55,0.02-7.09,0.05-10.64,0.07c0,0-5.32-1.24,1.16-10.85v-10.77c0,0-4.16-12.47-9.81,0c0,0-0.17,3.82-4.66,3.33
		c0,0-8.98,0.33-3.16-7.81c0,0,1.33-1.16,2-7.73c0,0,1.66-11.39,5.49-15.05c-0.28-1.83-0.62-3.75-1.04-5.74
		C467.64,393.69,467.15,391.65,466.63,389.73z"/>
	<path class="st6" d="M483.43,450.4c0,0,4.32-1.76,7.81-20.55"/>
	<path class="st6" d="M488.75,450.4c1.46-1.56,3.01-3.45,4.46-5.68c3.4-5.21,4.97-10.23,5.74-13.9"/>
	<path class="st7" d="M350.41,428.85"/>
	<path id="inside_shirt" class="st7" d="M367.87,428.85h46.89v-94.77c0,0,2.33-4.47,3.49-16.78c-4.63,2.31-14.53,6.47-27.6,5.98
		c-11.71-0.44-20.46-4.42-24.94-6.84c-1.05-0.01-2.1-0.02-3.16-0.04c0.08,2.02,0.36,4.54,1.14,7.33c1.18,4.27,3.03,7.53,4.51,9.69
		C368.09,365.22,367.98,397.03,367.87,428.85z"/>
	<path id="left_shirt" class="st8" d="M367.36,440.6c0,0-20.1,4.04-41.72-14.09c0,0,5.86-48.88,3.85-55.2
		c-1.29-4.06-5.28,5.87-7.96,13.5c-1.5,4.25-2.59,7.79-2.59,7.79l-37.69-6.65c0,0-2.01-7.48,0.84-14.47h1.83
		c0,0,12.62-36.04,36.87-54.2c2.01-1.51,2.01-1.51,2.01-1.51l40.38,0.6c-0.47,2.73-0.08,4.7,0.33,5.95c1.31,4,4.36,5.38,5.19,9.74
		c0.25,1.34,0.21,2.47,0.14,3.16C368.35,370.36,367.86,405.48,367.36,440.6z"/>
	<path class="st8" d="M323.44,382.27l-3.7,10.74l-1.91-0.62l-4.31-0.77l-32.27-5.77c0,0-2.19-6.36,0.84-14.66
		C282.09,371.19,320.25,379.7,323.44,382.27z"/>
	<path class="st8" d="M321.23,371.48c0,0-1.91-3.82-7.23-4.66"/>
	<path class="st8" d="M327.97,365.5c-0.33-0.17-2.68-7.15-3.58-12.8"/>
	<path class="st8" d="M331.07,350.2c0-0.17,0,33.25,0,33.25"/>
	<path class="st8" d="M365.44,325.93c-1.48-0.98-4.39-2.58-8.22-2.65c-8.77-0.14-13.97,7.88-14.34,8.46c0,0-1.9,2.33-2.76-2.66
		c-0.86-4.99,1.38-13.02,1.38-13.02l21.95,0.32c-0.14,1.1-0.21,2.65,0.11,4.45C363.95,323.12,364.8,324.85,365.44,325.93z"/>
	<path id="right_shirt" class="st8" d="M415.26,441.32c4.66-0.11,9.31-0.22,13.97-0.33c0,0,18.12-4.16,27.77-13.64
		c0,0-4.82-38.57-3.16-58.19c0,0,2-3.66,5.15,6.98s6.32,16.63,6.32,16.63l36.58-7.15v-9.48l-1-4.66h-2.83c0,0,4.02-12.65-36.9-56.12
		c0,0-7.83,3.26-42.91,1.93c0.39,3.73-0.25,6.32-0.94,8.02c-0.44,1.1-1.09,2.27-1.76,4.48c-0.4,1.31-0.72,2.67-0.79,4.28
		c-0.03,0.69-0.02,1.26,0.01,1.67C414.93,370.93,415.1,406.12,415.26,441.32z"/>
	<path class="st8" d="M416.76,327.46c4.11-2.11,9.85-4.17,14.96-2.03c5.11,2.13,7.67,7.66,9.48,6.82c0.57-0.27,0.86-1.07,1-6.51
		c0.09-3.46,0.05-6.31,0-8.24l-23.94-0.2L416.76,327.46z"/>
	<path class="st8" d="M488.92,326.42"/>
	<path class="st8" d="M453.83,369.16c0,0,3.22-6.57,4.48-15.55"/>
	<path class="st8" d="M461.48,372.15c0,0,3.66-5.15,8.56-6.65"/>
	<path class="st8" d="M459.69,381.68c0,0,21.59-8.22,38.02-10.03h2.88c0,0,2.03,4.78,1.02,14.02l-37.26,7.09
		C464.34,392.77,460.79,387.68,459.69,381.68z"/>
	<path class="st8" d="M452.07,351.18c-0.22-0.22,0.95,31.29,0.95,31.29"/>
	<path class="st8" d="M333.51,347.26h29.05v7.54v20.62c0,0-0.89,4.88-5.33,5.32c-4.43,0.44-18.84,0-18.84,0s-3.99,0-4.88-5.1
		c-0.55-3.17-0.42-13.36-0.24-20.62C333.38,350.6,333.51,347.26,333.51,347.26z"/>
	<path class="st8" d="M333.27,355.02c0,0,2.23,6.07,8.22,6.37s13.08,0,13.08,0s7.99,0.96,7.99-6.58"/>
	<ellipse class="st8" cx="348.65" cy="354.43" rx="0.73" ry="0.37"/>
	<path class="st8" d="M449.23,347.26v9.17v18.77c0,0-0.22,4.61-5.32,5.74c-5.1,1.13-18.18,0-18.18,0s-4.43-0.42-4.66-5.74
		c-0.22-5.32,0-27.93,0-27.93H449.23z"/>
	<path class="st8" d="M420.98,354.8c0,0,0.54,5.18,7.41,6.58h15.74c0,0,4.21-0.67,5.1-4.95"/>
	<ellipse class="st8" cx="436.45" cy="354.43" rx="0.73" ry="0.37"/>
	<path class="st3" d="M323.05,491.36c0,0,1.81-5.1,22.87,3.99"/>
	<path class="st3" d="M367.65,500.68c0,0.44,5.76,3.33,7.98,6.43"/>
	<path class="st3" d="M411.77,502.89c0,0,11.43-9.5,23.34-12.95"/>
	<path class="st0" d="M286.79,510.32"/>
	<path class="st0" d="M301.25,509.49c0,0,15.63-1.22,20.06,16.35c0,0-12.3,3.06-29.79-3.71
		C291.53,522.13,292.42,514.7,301.25,509.49z"/>
	<path class="st9" d="M307.64,505.34c0,0,9.93,0.07,19.16,8.55c0,0,2.74,1.27,0.75-1.23c-2-2.51-13.07-9.13-16.97-8.77
		L307.64,505.34z"/>
	<path class="st9" d="M313.13,502.77c0,0,8.27,1.4,18.83,9.46c0,0,3.41,1.58,2-1.91c-1.41-3.49-18.09-8.65-18.09-8.65L313.13,502.77
		z"/>
	<path class="st9" d="M317.58,501.04c0,0,9.18,2.12,19.49,8.01c0,0,4.61,1.77,1.83-2.72c0,0-3.33-4.32-17.67-6.32L317.58,501.04z"/>
	<path class="st0" d="M482.77,510.73c0,0-15.75-1.22-20.22,16.35c0,0,12.4,3.06,30.03-3.71
		C492.57,523.38,491.67,515.94,482.77,510.73z"/>
	<path class="st9" d="M476.33,506.59c0,0-10.01,0.07-19.31,8.55c0,0-2.77,1.27-0.75-1.23c2.01-2.51,13.17-9.13,17.1-8.77
		L476.33,506.59z"/>
	<path class="st9" d="M470.8,504.01c0,0-8.34,1.4-18.98,9.46c0,0-3.44,1.58-2.01-1.91s18.23-8.65,18.23-8.65L470.8,504.01z"/>
	<path class="st9" d="M466.31,502.29c0,0-9.25,2.12-19.64,8.01c0,0-4.65,1.77-1.84-2.72c0,0,3.36-4.32,17.81-6.32L466.31,502.29z"/>
	<path class="st3" d="M454.76,491.56c0,0-9.6-1.45-13.34,0"/>
	<path class="st3" d="M391.5,439.62"/>
	<path class="st3" d="M388.6,440.43c0,0,2.36-3.3,8.7-3.77"/>
	<path class="st10" d="M365.72,322.27c0,0,24.31,13.78,51.81-1.01"/>
</g>
<g id="facial_features_and_hair">
	
		<linearGradient id="eye_2_with_gloss_1_" gradientUnits="userSpaceOnUse" x1="293.5226" y1="233.7102" x2="338.2918" y2="233.7102" gradientTransform="matrix(0.6776 0.7354 -0.7354 0.6776 273.7159 -156.9786)">
		<stop  offset="0.3967" style="stop-color:#2B2B2B"/>
		<stop  offset="0.779" style="stop-color:#000000"/>
	</linearGradient>
	<circle id="eye_2_with_gloss" class="st11" cx="315.91" cy="233.71" r="22.38"/>
	
		<linearGradient id="eyes_with_gloss_1_" gradientUnits="userSpaceOnUse" x1="446.4764" y1="233.9156" x2="491.2456" y2="233.9156" gradientTransform="matrix(0.5777 0.8162 -0.8162 0.5777 388.9292 -283.9243)">
		<stop  offset="0.3967" style="stop-color:#2B2B2B"/>
		<stop  offset="0.779" style="stop-color:#000000"/>
	</linearGradient>
	<circle id="eyes_with_gloss" class="st12" cx="468.86" cy="233.92" r="22.38"/>
	<path id="under_eyes" class="st13" d="M302.31,263.07c0,0,21.65,1.83,31.31-9.81"/>
	<path id="under_eyes_2" class="st13" d="M480.79,263.07c0,0-22.13,1.83-32-9.81"/>
	<path id="left_eyebrow" class="st14" d="M345.93,203.05c0,0,2.32,1.33,1.99-9.31c0,0-9.31-5.45-40.27-6.65
		c-2.1-0.01-4.8,0.21-7.8,1.08c-6.34,1.83-10.49,5.53-12.53,7.65c-0.92,0.88-1.36,1.78-1.58,2.33c-0.61,1.57-0.7,3.68,0.33,4.96
		c0.2,0.25,0.55,0.67,1.08,0.7c0.68,0.03,1.17-0.64,1.25-0.75c1.58-1.28,3.68-2.71,6.33-3.92c5.2-2.38,9.98-2.75,12.92-2.73
		C307.64,196.4,330.3,202.05,345.93,203.05z"/>
	<path id="right_eyebrow" class="st14" d="M437.51,204.22c0,0-2.32,1.43-1.99-9.99c0,0,9.32-5.85,40.32-7.14
		c2.1-0.01,4.8,0.23,7.8,1.16c6.35,1.97,10.51,5.93,12.55,8.21c0.92,0.95,1.37,1.91,1.58,2.5c0.61,1.68,0.7,3.94-0.33,5.32
		c-0.2,0.26-0.55,0.72-1.08,0.75c-0.68,0.03-1.17-0.69-1.25-0.8c-1.59-1.37-3.69-2.91-6.33-4.21c-5.21-2.56-9.99-2.95-12.94-2.93
		C475.84,197.08,453.16,203.15,437.51,204.22z"/>
	<linearGradient id="SVGID_1_" gradientUnits="userSpaceOnUse" x1="387.6591" y1="259.8082" x2="393.251" y2="259.8082">
		<stop  offset="0.5859" style="stop-color:#F8C899"/>
		<stop  offset="0.9065" style="stop-color:#FAE2CB"/>
	</linearGradient>
	<polyline class="st15" points="387.66,268.57 393.25,250.83 393.24,268.79 	"/>
	<path class="st16" d="M380.58,262.4l12.35,9.83l12.38-10.79c-4.1,1.6-6.84,3.48-8.62,4.94c-1.48,1.22-2.41,2.25-3.97,2.31
		c-1.93,0.07-2.97-1.43-5.6-3.2C385.69,264.51,383.56,263.32,380.58,262.4z"/>
	<path class="st17" d="M270.27,156.83c0,0,10.33-13.3,24.2-12.47"/>
	<path class="st17" d="M275.76,131.55c0,0,21.28-1.83,21.45,3.16"/>
	<path class="st17" d="M266.12,183.6c0,0,4.38-10.35,12.58-12.08"/>
	<path class="st17" d="M266.95,205.02c0,0,2.99-10.78,8.81-13.11"/>
	<path class="st17" d="M307.18,126.4l-1.16-9.98c0,0-2.49-6.15,14.47-2.66c0,0,3.66,1,5.32,2.83"/>
	<path class="st17" d="M314.33,122.24c0,0,5.65,9.98,20.12,16.29"/>
	<path class="st17" d="M300.2,104.29c0,0,11.91-0.32,17.76,8.4"/>
	<path class="st17" d="M317.96,99.8c0,0,10.34,2.49,13.83,10.14"/>
	<path class="st17" d="M340.6,117.26c0,0,1.83,15.46,10.31,19.29"/>
	<path class="st17" d="M345.76,108.49c0,0,5.15,1.71,8.65,11.06"/>
	<path class="st17" d="M359.23,103.46c0,0-2.33-8.48-15.8-9.14"/>
	<path class="st17" d="M380.58,122.24c0,0-3.75,7.48,0,17.62"/>
	<path class="st17" d="M369.87,110.94c0,0-0.75,10.65,4.16,14.8"/>
	<path class="st17" d="M379.75,106.45l-7.82-2.99c0,0-7.71-2.24-6.71,5.03c0,0-1.66,18.92,3.16,22.74"/>
	<path class="st17" d="M361.06,110.94c0,0-14.13-8.81-16.79-8.81s-7.48-1.66-8.31,3.49c-0.83,5.15-0.83,21.28-0.83,21.28"/>
	<line class="st17" x1="371.2" y1="96.97" x2="371.2" y2="87.36"/>
	<path class="st17" d="M382.34,109.94c0,0,11.14-17.29,17.79-15.63c0,0,2.83-1.74,1.16,14.18"/>
	<path class="st17" d="M397.3,99.8c0,0-10.48,15.46-8.31,33.92"/>
	<path class="st17" d="M420.91,116.76v-9.64c0,0-13.36-3.66-23.61,16.13"/>
	<path class="st17" d="M427.4,108.49c0,0,5.99-10.69,17.46-11.52"/>
	<path class="st17" d="M412.77,115.93c0,0-7.48,10.14-8.65,20.62"/>
	<line class="st17" x1="425.24" y1="136.54" x2="436.13" y2="125.07"/>
	<path class="st17" d="M417.59,125.74c0,0,22.78-20.62,29.43-2.49"/>
	<path class="st17" d="M449.51,110.94c0,0,6.27-6.34,17.35-6.07"/>
	<path class="st17" d="M442.69,128.89c0,0,15.8-9.31,26.94-6.65c0,0,2.33,2.49-1.83,8.15"/>
	<line class="st17" x1="476.78" y1="122.24" x2="495.9" y2="121.77"/>
	<path class="st17" d="M481.6,136.54c0,0,23.11-2.99,26.94,3.33"/>
	<path class="st17" d="M509.37,163.31c0,0,7.98,6.82,8.98,19.12"/>
	<path class="st17" d="M512.86,193.41c0,0,7.94,4.91,8.13,12.68"/>
</g>
<g id="chain_and_watch">
	<path class="st18" d="M364.33,316.42c0,0,3.77,21.08,5.76,23.86c-0.67,1.37-1.33,2.73-2,4.1c-2.62-9.34-5.25-18.68-7.87-28.02
		L364.33,316.42z"/>
	<linearGradient id="SVGID_2_" gradientUnits="userSpaceOnUse" x1="371.0875" y1="352.5838" x2="412.8915" y2="352.5838">
		<stop  offset="0.2754" style="stop-color:#DBDADA"/>
		<stop  offset="0.4287" style="stop-color:#D7D6D6"/>
		<stop  offset="0.5335" style="stop-color:#CCCACB"/>
		<stop  offset="0.624" style="stop-color:#BBB9B9"/>
		<stop  offset="0.7062" style="stop-color:#A5A3A4"/>
		<stop  offset="0.7828" style="stop-color:#8B8A8A"/>
		<stop  offset="0.8544" style="stop-color:#707070"/>
		<stop  offset="0.8628" style="stop-color:#6C6C6C"/>
	</linearGradient>
	<path class="st19" d="M374.3,348.7c0,0,2.22,7.21,6.32,7.43c4.1,0.22,2.22-13.08,2.22-13.08l3.66-0.89c0,0,0.44,10.9,5.43,12.27
		s4.99-12.27,4.99-12.27l5.21,1.22c0,0-3.88,8.87,0.89,12.75c0,0,1.55,1.77,6.65-6.98l3.1,2.03c0,0-5.21,9.5-4.66,11.82h-33.03
		c0,0,0.56-4.29-3.99-11.82L374.3,348.7z"/>
	<linearGradient id="SVGID_3_" gradientUnits="userSpaceOnUse" x1="373.1074" y1="366.364" x2="410.4944" y2="366.364">
		<stop  offset="0" style="stop-color:#DBDADA"/>
		<stop  offset="0.0125" style="stop-color:#D9D8D8"/>
		<stop  offset="0.6902" style="stop-color:#868485"/>
		<stop  offset="1" style="stop-color:#6C6C6C"/>
	</linearGradient>
	<path class="st20" d="M375.08,363c0,0-4.43,2,0,4.88s31.15,2,33.48,0c2.33-2,2.99-2.99-0.44-4.88H375.08z"/>
	<linearGradient id="SVGID_4_" gradientUnits="userSpaceOnUse" x1="365.1577" y1="345.7949" x2="375.9286" y2="345.7949">
		<stop  offset="0.3222" style="stop-color:#DBDADA"/>
		<stop  offset="0.4135" style="stop-color:#BFBDBE"/>
		<stop  offset="0.5915" style="stop-color:#989696"/>
		<stop  offset="0.7547" style="stop-color:#7F7E7E"/>
		<stop  offset="0.8962" style="stop-color:#717171"/>
		<stop  offset="1" style="stop-color:#6C6C6C"/>
	</linearGradient>
	<circle class="st21" cx="370.54" cy="345.79" r="5.39"/>
	<linearGradient id="SVGID_5_" gradientUnits="userSpaceOnUse" x1="378.394" y1="338.9957" x2="389.1649" y2="338.9957">
		<stop  offset="0" style="stop-color:#DBDADA"/>
		<stop  offset="0.1348" style="stop-color:#BFBDBE"/>
		<stop  offset="0.3974" style="stop-color:#989696"/>
		<stop  offset="0.638" style="stop-color:#7F7E7E"/>
		<stop  offset="0.8468" style="stop-color:#717171"/>
		<stop  offset="1" style="stop-color:#6C6C6C"/>
	</linearGradient>
	<circle class="st22" cx="383.78" cy="339" r="5.39"/>
	<linearGradient id="SVGID_6_" gradientUnits="userSpaceOnUse" x1="395.0211" y1="338.9957" x2="405.792" y2="338.9957">
		<stop  offset="0" style="stop-color:#DBDADA"/>
		<stop  offset="0.0125" style="stop-color:#D9D8D8"/>
		<stop  offset="0.6902" style="stop-color:#868485"/>
		<stop  offset="1" style="stop-color:#6C6C6C"/>
	</linearGradient>
	<circle class="st23" cx="400.41" cy="339" r="5.39"/>
	<path class="st18" d="M422.11,317.22c-2.49,9.36-4.97,18.73-7.46,28.09c-0.63-1.37-1.26-2.74-1.89-4.11
		c1.89-2.78,5.46-23.91,5.46-23.91L422.11,317.22z"/>
	<linearGradient id="SVGID_7_" gradientUnits="userSpaceOnUse" x1="410.1335" y1="343.9014" x2="415.0108" y2="349.0004">
		<stop  offset="0" style="stop-color:#DBDADA"/>
		<stop  offset="0.0125" style="stop-color:#D9D8D8"/>
		<stop  offset="0.6902" style="stop-color:#868485"/>
		<stop  offset="1" style="stop-color:#6C6C6C"/>
	</linearGradient>
	<circle class="st24" cx="412.77" cy="346.65" r="5.39"/>
	<linearGradient id="SVGID_8_" gradientUnits="userSpaceOnUse" x1="463.0273" y1="397.1305" x2="497.1127" y2="397.1305">
		<stop  offset="0" style="stop-color:#DBDADA"/>
		<stop  offset="0.1348" style="stop-color:#BFBDBE"/>
		<stop  offset="0.3974" style="stop-color:#989696"/>
		<stop  offset="0.638" style="stop-color:#7F7E7E"/>
		<stop  offset="0.8468" style="stop-color:#717171"/>
		<stop  offset="1" style="stop-color:#6C6C6C"/>
	</linearGradient>
	<path class="st25" d="M467.39,395.59c11.36-0.58,22.72-1.16,34.09-1.75v6.57h-33.42L467.39,395.59z"/>
	<path class="st26" d="M491.74,392.27"/>
	<path class="st27" d="M491.74,392.27c0,0-3.16,0.33-2.99,4.49c0.02,0.49,0.06,1.62,0.78,2.78c1.03,1.64,2.67,2.16,3.12,2.29
		c0.43,0.03,1.91,0.1,3.13-0.92c1.47-1.21,1.49-3.08,1.52-3.78C497.56,391.85,491.74,392.27,491.74,392.27z"/>
	<path class="st28" d="M493.03,397.05c0.12-0.13,2.2-2.12,2.2-2.12l-2.08,2l1.66,3.57"/>
	<circle class="st26" cx="493.16" cy="396.92" r="0.35"/>
</g>
<g id="pumpkin">
	<path class="st29" d="M501.82,457.25c-0.41-0.45-1.06-1.08-1.98-1.63c-2.35-1.4-4.76-1.31-5.76-1.27c-3.53,0.11-11.17,0.02-21.39,0
		c-0.84,0.01-2.57,0.17-4.06,1.37c-1.28,1.03-2.51,2.98-2.22,4.18c0.9,3.75,36.75-0.22,36.75-0.22L501.82,457.25z"/>
	<path class="st30" d="M466.75,458.72c1.19,0.06,2.37,0.12,3.56,0.18c-0.06-2.17-0.07-5.25,0.2-8.94c0.35-4.8,0.56-7.25,1.72-9.73
		c0.74-1.59,2.48-4.55,6.55-7.02c0-1.52,0-3.05,0-4.57c-1.47,0.72-12.02,3.89-12.02,13.55
		C466.75,451.55,466.75,458.72,466.75,458.72z"/>
	<path class="st30" d="M499.89,457.92c0,0,1.12-16.38-0.93-16.21l2.51-4.1c0,0,2.49,2.1,1.67,20.09L499.89,457.92z"/>
	<path class="st29" d="M453.83,483.78c-0.56-9.24,3.25-21.51,11.51-25.2c4.93-2.21,7.11,0.58,20.69,0.42
		c12.27-0.14,13.92-2.45,18.48-0.59c8.49,3.46,13.11,15.66,12.69,25.37c-0.63,14.37-12.64,31.69-31.69,31.69
		C466.31,515.46,454.69,497.85,453.83,483.78z"/>
	<path class="st31" d="M470.63,457.79c0,0-4.48,0.6-4.54,8.35"/>
	<path class="st31" d="M499.41,457.79c0,0,4.53,2.04,4.25,8.35"/>
	<path class="st31" d="M498.53,512.48c0,0,5.38-4.1,5.14-12.52"/>
	<path class="st31" d="M481.82,515.24c0,0,5.1-1.25,7.1-9.29"/>
	<path class="st31" d="M473.08,512.73c0,0-6.54-4.3-7.16-12.05"/>
	<path class="st31" d="M455.7,470.63"/>
	<path class="st32" d="M487.34,458.9c0,0,1.83,3.31,1.61,6.13"/>
	<polygon class="st33" points="466.08,482.33 478.28,482.33 472.18,471.19 	"/>
	<polygon class="st33" points="491.91,483.16 503.99,483.16 497.95,471.19 	"/>
	<path class="st33" d="M464.2,489.09c0,0,7.65,3.27,25.94,3.1v3.05h4.71v-3.08c0,0,2.88,0.3,10.86-4.13c0,0-4.77,12.58-15.19,14.88
		l-11.25-0.25c0,0-1.44-0.06-1-5.87l-6.1,0.06v2.55C472.18,499.4,464.7,493.53,464.2,489.09z"/>
	<path class="st34" d="M477.52,425.36c0,0,2.47,2.32,1.75,10.08"/>
</g>
</svg>
