<?xml version="1.0" encoding="utf-8"?>
<!-- Generator: Adobe Illustrator 24.0.0, SVG Export Plug-In . SVG Version: 6.00 Build 0)  -->
<svg version="1.1" id="Layer_1" xmlns="http://www.w3.org/2000/svg" xmlns:xlink="http://www.w3.org/1999/xlink" x="0px" y="0px"
	 viewBox="0 0 1366 768" style="enable-background:new 0 0 1366 768;" xml:space="preserve">
<style type="text/css">
	.st0{fill:#E7FFFF;}
	.st1{fill:#C69C6D;stroke:#000000;stroke-width:2;stroke-miterlimit:10;}
	.st2{fill:#E6E6E6;stroke:#000000;stroke-width:5;stroke-miterlimit:10;}
	.st3{fill:#F2F2F2;stroke:#000000;stroke-width:5;stroke-miterlimit:10;}
	.st4{fill:none;stroke:#000000;stroke-width:5;stroke-miterlimit:10;}
	.st5{fill:#FFFF00;stroke:#000000;stroke-width:5;stroke-miterlimit:10;}
	.st6{fill:#FFFF00;stroke:#FFFF00;stroke-width:5;stroke-miterlimit:10;}
	.st7{fill:#666666;stroke:#000000;stroke-width:5;stroke-miterlimit:10;}
	.st8{fill:#3FA9F5;stroke:#000000;stroke-width:5;stroke-miterlimit:10;}
	.st9{fill:#999999;}
	.st10{fill:#666666;stroke:#000000;stroke-width:2;stroke-miterlimit:10;}
	.st11{fill:#009245;stroke:#000000;stroke-width:2;stroke-miterlimit:10;}
	.st12{fill:#534741;stroke:#000000;stroke-width:4;stroke-miterlimit:10;}
	.st13{fill:#333333;stroke:#000000;stroke-width:4;stroke-miterlimit:10;}
	.st14{fill:#754C24;stroke:#000000;stroke-width:4;stroke-miterlimit:10;}
	.st15{fill:#29ABE2;stroke:#000000;stroke-width:2;stroke-miterlimit:10;}
	.st16{fill:none;stroke:#000000;stroke-miterlimit:10;}
	.st17{fill:#534741;stroke:#000000;stroke-width:2;stroke-miterlimit:10;}
	.st18{fill:#E7FFFF;stroke:#000000;stroke-miterlimit:10;}
	.st19{fill:#29ABE2;stroke:#000000;stroke-width:0.5;stroke-miterlimit:10;}
	.st20{fill:none;stroke:#000000;stroke-width:0.25;stroke-miterlimit:10;}
	.st21{fill:#603813;stroke:#000000;stroke-width:4;stroke-miterlimit:10;}
	.st22{fill:#006837;}
	.st23{fill:none;stroke:#000000;stroke-width:0.75;stroke-miterlimit:10;}
	.st24{fill:#ED1C24;stroke:#000000;stroke-width:0.75;stroke-miterlimit:10;}
	.st25{fill:#C1272D;}
	.st26{fill:#0000FF;}
	.st27{fill:#006837;stroke:#000000;stroke-miterlimit:10;}
	.st28{fill:#FFFF00;stroke:#000000;stroke-miterlimit:10;}
	.st29{fill:#FBB03B;stroke:#000000;stroke-miterlimit:10;}
	.st30{fill:#F7931E;}
	.st31{fill:#F15A24;}
	.st32{fill:#4D4D4D;stroke:#000000;stroke-width:5;stroke-miterlimit:10;}
	.st33{fill:#29ABE2;stroke:#000000;stroke-width:5;stroke-miterlimit:10;}
	.st34{fill:#F2F2F2;}
	.st35{font-family:'MyriadPro-Regular';}
	.st36{font-size:22px;}
	.st37{fill:#FFFFFF;}
	.st38{opacity:0.5;fill:#47A7FF;stroke:#000000;stroke-width:5;stroke-miterlimit:10;}
</style>
<g>
	<rect x="80.38" y="47.38" class="st0" width="1198.25" height="672.25"/>
	<path d="M1278.25,47.75v671.5H80.75V47.75H1278.25 M1279,47H80v673h1199V47L1279,47z"/>
</g>
<path class="st1" d="M944.79,719.5C933.52,593,996.73,479.91,1095,440c82.84-33.64,162.11-3.72,184,5.4V720L944.79,719.5z"/>
<polygon class="st2" points="205.78,473 243.5,555.71 213.5,595.95 232.5,647.43 224.64,719.5 79.5,719.5 79.5,473.34 "/>
<polygon class="st3" points="205.78,472.62 79.5,46.5 79.5,473 "/>
<g>
	<polygon class="st3" points="265.5,184.99 289.5,134 298.5,47.5 202.5,47 	"/>
	<path class="st4" d="M251,80.5l10-9c0,4,4,42,4,42h-10h20"/>
</g>
<g>
	<polygon class="st3" points="149.5,46.5 211.75,47 301.5,291.5 301.5,356.5 268.5,336.5 268.5,397.5 	"/>
	<path class="st4" d="M188,96.5c0,0,10-22,20,0l-10,36h16"/>
</g>
<g>
	<polygon class="st3" points="199.93,437.65 232.5,446 268.5,398 149.06,47.5 79.5,47 	"/>
	<path class="st4" d="M122.5,86.5c0,0,50,9,7,30c0,0,41,14,5,28"/>
</g>
<path class="st5" d="M559.5,53.5"/>
<path class="st5" d="M423.36,47c0,0,66.01,198.5,153.08-0.5L423.36,47z"/>
<line class="st6" x1="407.5" y1="71.5" x2="349.5" y2="90.5"/>
<line class="st6" x1="423.5" y1="113.5" x2="349.5" y2="151.5"/>
<line class="st6" x1="465.5" y1="151.5" x2="416.5" y2="213.5"/>
<line class="st6" x1="517.5" y1="158.5" x2="517.5" y2="221.5"/>
<polygon class="st7" points="647.62,47 647.5,132.5 837.5,132.5 837.5,47 "/>
<path class="st8" d="M803.29,62.5h-47.59c-8.95,0-16.21,7.26-16.21,16.21v20.59c0,8.95,7.26,16.21,16.21,16.21h47.59
	c8.95,0,16.21-7.26,16.21-16.21V78.71C819.5,69.76,812.24,62.5,803.29,62.5z"/>
<line class="st4" x1="779.5" y1="80.5" x2="779.5" y2="83.5"/>
<line class="st4" x1="779.5" y1="92.5" x2="779.5" y2="95.5"/>
<line class="st7" x1="750.5" y1="75" x2="750.5" y2="101"/>
<path class="st4" d="M767.5,76c0,0-11,7.84-5,21.29c0,0,6,6.72,8-4.48s-8-6.72-8-6.72"/>
<path class="st4" d="M790.85,97.5c0,0-12.29-7.68,0-19.21C790.85,78.29,804.68,86.74,790.85,97.5z"/>
<path class="st4" d="M807.88,97.27c0,0-12.29-7.68,0-19.21C807.88,78.06,821.71,86.51,807.88,97.27z"/>
<g>
	<circle class="st9" cx="694.5" cy="86.5" r="26"/>
	<path d="M694.5,63c12.96,0,23.5,10.54,23.5,23.5S707.46,110,694.5,110S671,99.46,671,86.5S681.54,63,694.5,63 M694.5,58
		C678.76,58,666,70.76,666,86.5s12.76,28.5,28.5,28.5S723,102.24,723,86.5S710.24,58,694.5,58L694.5,58z"/>
</g>
<g>
	<path class="st0" d="M694.63,92.46c-3.24,0-5.88-2.64-5.88-5.87s2.64-5.87,5.88-5.87s5.87,2.64,5.87,5.87
		S697.86,92.46,694.63,92.46z"/>
	<path d="M694.63,83.21c1.86,0,3.37,1.51,3.37,3.37s-1.51,3.37-3.37,3.37s-3.37-1.51-3.37-3.37S692.76,83.21,694.63,83.21
		 M694.63,78.21c-4.63,0-8.37,3.75-8.37,8.37c0,4.63,3.75,8.37,8.37,8.37c4.63,0,8.37-3.75,8.37-8.37
		C703,81.96,699.25,78.21,694.63,78.21L694.63,78.21z"/>
</g>
<line class="st10" x1="694" y1="60" x2="694" y2="69"/>
<line class="st10" x1="721" y1="86" x2="713" y2="86"/>
<line class="st10" x1="695" y1="112" x2="695" y2="104"/>
<line class="st10" x1="668" y1="87" x2="676" y2="87"/>
<line class="st10" x1="675" y1="69" x2="681" y2="74"/>
<line class="st10" x1="714" y1="69" x2="707" y2="74"/>
<line class="st10" x1="711" y1="106" x2="704" y2="99"/>
<line class="st10" x1="676" y1="105" x2="681" y2="99"/>
<line class="st10" x1="1279" y1="456" x2="1243.49" y2="456"/>
<line class="st10" x1="1279" y1="416.15" x2="1243" y2="416"/>
<line class="st10" x1="1279" y1="373.31" x2="1243" y2="373"/>
<path class="st11" d="M1077.05,448.3L1099,445l17,6l24-6l45,6l28-6l33,3h18l9.76-4.72c0,0-42.78-19.46-100.77-18.87
	C1115,425,1077.05,448.3,1077.05,448.3z"/>
<g>
	<path d="M1279,48v665H83V48H1279 M1293,34H69v693h1224V34L1293,34z"/>
</g>
<polygon class="st12" points="1143,432 1143,373 1214,375 1214,432 "/>
<polygon class="st13" points="1136,376 1222,376 1179,339 "/>
<polygon class="st14" points="1164.15,432 1164,410 1175,410 1175.4,432 "/>
<g>
	<rect x="1182" y="405" class="st15" width="25" height="16"/>
	<line class="st16" x1="1194.5" y1="405" x2="1194.5" y2="420.5"/>
	<line class="st16" x1="1182" y1="412.5" x2="1207" y2="412.5"/>
</g>
<polygon class="st17" points="1192.99,351.03 1193,343 1201,343 1201,357.5 "/>
<line class="st18" x1="1172.5" y1="421" x2="1172.5" y2="422"/>
<rect x="1167.36" y="414.72" class="st19" width="4.64" height="3.16"/>
<line class="st20" x1="1169.68" y1="414.72" x2="1169.68" y2="417.78"/>
<line class="st20" x1="1167.36" y1="416.2" x2="1172" y2="416.2"/>
<path class="st21" d="M1123,434c0,0-30-48-12-79c0,0,1-10-7-3s-18,58,9,86"/>
<g>
	<path class="st22" d="M1075.52,370.35c-1.29,0-2.98-0.24-3.7-1.37c-1.8-2.86,3.57-10.53,14.44-17.4
		c6.77-4.27,13.75-6.93,18.22-6.93c1.29,0,2.98,0.24,3.7,1.37c1.8,2.86-3.57,10.53-14.44,17.4
		C1086.97,367.69,1079.99,370.35,1075.52,370.35C1075.52,370.35,1075.52,370.35,1075.52,370.35z"/>
	<path d="M1104.48,345.15c1.17,0,2.68,0.2,3.28,1.14c1.64,2.6-3.82,10.1-14.29,16.71c-6.7,4.23-13.57,6.85-17.95,6.85
		c-1.17,0-2.68-0.2-3.28-1.14c-1.64-2.6,3.82-10.1,14.29-16.71C1093.23,347.78,1100.1,345.15,1104.48,345.15 M1104.48,344.15
		c-4.4,0-11.4,2.54-18.48,7.01c-10.27,6.49-16.81,14.58-14.6,18.09c0.69,1.09,2.14,1.61,4.12,1.61c4.4,0,11.4-2.54,18.48-7.01
		c10.27-6.49,16.81-14.58,14.6-18.09C1107.92,344.67,1106.46,344.15,1104.48,344.15L1104.48,344.15z"/>
</g>
<g>
	<path class="st22" d="M1129.76,370.07c-3.85,0-9.69-2.8-14.87-7.13c-3.67-3.07-6.63-6.54-8.33-9.77c-1.6-3.05-1.87-5.58-0.74-6.93
		c0.65-0.77,1.72-1.17,3.18-1.17c3.85,0,9.69,2.8,14.87,7.13c7.35,6.14,11.5,13.79,9.07,16.7
		C1132.29,369.68,1131.22,370.07,1129.76,370.07L1129.76,370.07z"/>
	<path d="M1108.99,345.58c3.74,0,9.45,2.75,14.55,7.01c7.76,6.49,10.98,13.64,9.01,16c-0.55,0.66-1.49,0.99-2.79,0.99
		c-3.74,0-9.45-2.75-14.55-7.01c-7.76-6.49-10.98-13.64-9.01-16C1106.75,345.91,1107.69,345.58,1108.99,345.58 M1108.99,344.58
		c-1.56,0-2.8,0.43-3.56,1.35c-2.66,3.18,1.43,10.97,9.13,17.41c5.49,4.59,11.33,7.24,15.19,7.24c1.56,0,2.8-0.43,3.56-1.35
		c2.66-3.18-1.43-10.97-9.13-17.41C1118.7,347.23,1112.86,344.58,1108.99,344.58L1108.99,344.58z"/>
</g>
<g>
	<path class="st22" d="M1081.6,353.51c-6.93,0-10.29-1.49-10.48-2.88c-0.31-2.24,6.54-5.71,16.86-7.12
		c2.66-0.36,5.25-0.55,7.68-0.55c6.93,0,10.29,1.49,10.48,2.88c0.15,1.12-1.52,2.58-4.47,3.89c-3.22,1.43-7.62,2.58-12.38,3.23
		C1086.61,353.33,1084.03,353.51,1081.6,353.51L1081.6,353.51z"/>
	<path d="M1095.65,343.46c6.65,0,9.84,1.43,9.98,2.45c0.2,1.48-5.26,5.03-16.43,6.56c-2.64,0.36-5.2,0.54-7.61,0.54
		c-6.65,0-9.84-1.43-9.98-2.45c-0.2-1.48,5.26-5.03,16.43-6.56C1090.69,343.64,1093.25,343.46,1095.65,343.46 M1095.65,342.46
		c-2.37,0-5,0.18-7.74,0.55c-9.94,1.36-17.68,4.8-17.29,7.69c0.29,2.09,4.76,3.31,10.97,3.31c2.37,0,5-0.18,7.74-0.55
		c9.94-1.36,17.68-4.8,17.29-7.69C1106.34,343.68,1101.87,342.46,1095.65,342.46L1095.65,342.46z"/>
</g>
<g>
	<path class="st22" d="M1127.17,352.17c-1.42,0-2.88-0.05-4.35-0.16c-10.39-0.74-17.45-3.76-17.29-6c0.13-1.76,4.94-3.63,13.61-3.63
		c1.42,0,2.88,0.05,4.35,0.16c10.39,0.74,17.45,3.76,17.29,6C1140.66,350.3,1135.85,352.17,1127.17,352.17
		C1127.17,352.17,1127.17,352.17,1127.17,352.17z"/>
	<path d="M1119.15,342.88c1.41,0,2.86,0.05,4.32,0.16c4.75,0.34,9.16,1.19,12.43,2.39c3.55,1.31,4.43,2.54,4.39,3.07
		c-0.1,1.33-4.71,3.17-13.11,3.17c-1.41,0-2.86-0.05-4.32-0.16c-10.45-0.75-16.95-3.74-16.82-5.46
		C1106.13,344.72,1110.74,342.88,1119.15,342.88 M1119.15,341.88c-7.94,0-13.94,1.64-14.11,4.1c-0.21,2.89,7.74,5.82,17.75,6.53
		c1.51,0.11,2.98,0.16,4.39,0.16c7.94,0,13.94-1.64,14.11-4.1c0.21-2.89-7.74-5.82-17.75-6.53
		C1122.03,341.93,1120.56,341.88,1119.15,341.88L1119.15,341.88z"/>
</g>
<line class="st23" x1="1072.5" y1="369.5" x2="1106.08" y2="347.91"/>
<line class="st23" x1="1070.5" y1="350.5" x2="1106.5" y2="345.5"/>
<line class="st23" x1="1141.5" y1="348.5" x2="1105.43" y2="345.92"/>
<line class="st23" x1="1132.3" y1="369.5" x2="1109.19" y2="349"/>
<polygon class="st2" points="931.5,589.5 872.5,569.5 815.5,572.5 771.5,589.5 737.5,596.5 778.5,648.5 758.5,673.5 767.5,700.5 
	761.11,721.57 939.56,721.57 "/>
<polygon class="st2" points="1018.5,586.5 943.5,575.5 902.5,590.5 840.5,590.5 767.5,607.5 862.5,616.5 801.5,636.5 884.5,660.5 
	914.5,639.5 905.5,690.5 862.5,695.5 880.5,705.5 808.2,717.5 1034.06,721.57 1044.5,607.5 "/>
<polygon class="st2" points="1160.08,587.45 1095.5,566.5 1070.5,576.5 982.5,572.5 1020.5,605.5 968.5,605.5 982.5,646.5 
	1016.5,646.5 1001.5,665.5 961.5,672.5 1013.5,691.5 982.21,721.57 1123.47,721.57 "/>
<polygon class="st2" points="1286.3,581.11 1184.5,570 1151.5,603.2 1104.5,603.2 1098.5,631.21 1141.5,661.29 1063.5,671.67 
	1132.5,693.45 1115.5,716.28 1287.5,722.5 "/>
<ellipse class="st24" cx="779" cy="582" rx="16" ry="6"/>
<g>
	<ellipse class="st25" cx="811" cy="580" rx="20.75" ry="7.75"/>
	<path d="M811,572.5c11.11,0,20.5,3.43,20.5,7.5s-9.39,7.5-20.5,7.5s-20.5-3.43-20.5-7.5S799.89,572.5,811,572.5 M811,572
		c-11.6,0-21,3.58-21,8s9.4,8,21,8s21-3.58,21-8S822.6,572,811,572L811,572z"/>
</g>
<g>
	<ellipse class="st25" cx="800" cy="632" rx="15.75" ry="3.75"/>
	<path d="M800,628.5c9.6,0,15.5,2.04,15.5,3.5s-5.9,3.5-15.5,3.5s-15.5-2.04-15.5-3.5S790.4,628.5,800,628.5 M800,628
		c-8.84,0-16,1.79-16,4s7.16,4,16,4s16-1.79,16-4S808.84,628,800,628L800,628z"/>
</g>
<g>
	<ellipse class="st25" cx="970" cy="650" rx="22.75" ry="5.75"/>
	<path d="M970,644.5c13.26,0,22.5,2.9,22.5,5.5s-9.24,5.5-22.5,5.5s-22.5-2.9-22.5-5.5S956.74,644.5,970,644.5 M970,644
		c-12.7,0-23,2.69-23,6s10.3,6,23,6s23-2.69,23-6S982.7,644,970,644L970,644z"/>
</g>
<g>
	<ellipse class="st25" cx="979.5" cy="609.5" rx="13.25" ry="7.25"/>
	<path d="M979.5,602.5c7.17,0,13,3.14,13,7s-5.83,7-13,7s-13-3.14-13-7S972.33,602.5,979.5,602.5 M979.5,602
		c-7.46,0-13.5,3.36-13.5,7.5s6.04,7.5,13.5,7.5s13.5-3.36,13.5-7.5S986.96,602,979.5,602L979.5,602z"/>
</g>
<g>
	<ellipse class="st25" cx="1107" cy="601.5" rx="21.75" ry="8.25"/>
	<path d="M1107,593.5c11.65,0,21.5,3.66,21.5,8s-9.85,8-21.5,8s-21.5-3.66-21.5-8S1095.35,593.5,1107,593.5 M1107,593
		c-12.15,0-22,3.81-22,8.5s9.85,8.5,22,8.5s22-3.81,22-8.5S1119.15,593,1107,593L1107,593z"/>
</g>
<g>
	<ellipse class="st25" cx="1018.5" cy="570" rx="15.25" ry="8.75"/>
	<path d="M1018.5,561.5c8.27,0,15,3.81,15,8.5s-6.73,8.5-15,8.5c-8.27,0-15-3.81-15-8.5S1010.23,561.5,1018.5,561.5 M1018.5,561
		c-8.56,0-15.5,4.03-15.5,9s6.94,9,15.5,9s15.5-4.03,15.5-9S1027.06,561,1018.5,561L1018.5,561z"/>
</g>
<g>
	<ellipse class="st25" cx="877.5" cy="690" rx="14.25" ry="6.75"/>
	<path d="M877.5,683.5c7.59,0,14,2.98,14,6.5s-6.41,6.5-14,6.5s-14-2.98-14-6.5S869.91,683.5,877.5,683.5 M877.5,683
		c-8.01,0-14.5,3.13-14.5,7s6.49,7,14.5,7s14.5-3.13,14.5-7S885.51,683,877.5,683L877.5,683z"/>
</g>
<g>
	<ellipse class="st26" cx="1226.5" cy="643" rx="16.25" ry="6.75"/>
	<path d="M1226.5,636.5c8.67,0,16,2.98,16,6.5s-7.33,6.5-16,6.5s-16-2.98-16-6.5S1217.83,636.5,1226.5,636.5 M1226.5,636
		c-9.11,0-16.5,3.13-16.5,7s7.39,7,16.5,7s16.5-3.13,16.5-7S1235.61,636,1226.5,636L1226.5,636z"/>
</g>
<g>
	<ellipse class="st26" cx="1133" cy="595.5" rx="13.75" ry="7.25"/>
	<path d="M1133,588.5c7.44,0,13.5,3.14,13.5,7s-6.06,7-13.5,7s-13.5-3.14-13.5-7S1125.56,588.5,1133,588.5 M1133,588
		c-7.73,0-14,3.36-14,7.5s6.27,7.5,14,7.5s14-3.36,14-7.5S1140.73,588,1133,588L1133,588z"/>
</g>
<g>
	<circle class="st26" cx="1035" cy="578" r="9.75"/>
	<path d="M1035,568.5c5.24,0,9.5,4.26,9.5,9.5s-4.26,9.5-9.5,9.5s-9.5-4.26-9.5-9.5S1029.76,568.5,1035,568.5 M1035,568
		c-5.52,0-10,4.48-10,10s4.48,10,10,10s10-4.48,10-10S1040.52,568,1035,568L1035,568z"/>
</g>
<g>
	<ellipse class="st26" cx="816" cy="592" rx="36.75" ry="9.75"/>
	<path d="M816,582.5c21.83,0,36.5,4.91,36.5,9.5c0,2.39-3.82,4.79-10.47,6.59c-6.95,1.88-16.19,2.91-26.03,2.91
		c-21.83,0-36.5-4.91-36.5-9.5c0-2.39,3.82-4.79,10.47-6.59C796.91,583.53,806.16,582.5,816,582.5 M816,582c-20.43,0-37,4.48-37,10
		s16.57,10,37,10s37-4.48,37-10S836.43,582,816,582L816,582z"/>
</g>
<g>
	<ellipse class="st26" cx="892" cy="690" rx="13.75" ry="6.75"/>
	<path d="M892,683.5c7.32,0,13.5,2.98,13.5,6.5s-6.18,6.5-13.5,6.5s-13.5-2.98-13.5-6.5S884.68,683.5,892,683.5 M892,683
		c-7.73,0-14,3.13-14,7s6.27,7,14,7s14-3.13,14-7S899.73,683,892,683L892,683z"/>
</g>
<g>
	<ellipse class="st26" cx="1007" cy="648.5" rx="22.75" ry="7.25"/>
	<path d="M1007,641.5c13.46,0,22.5,3.62,22.5,7s-9.04,7-22.5,7c-13.46,0-22.5-3.62-22.5-7S993.54,641.5,1007,641.5 M1007,641
		c-12.7,0-23,3.36-23,7.5s10.3,7.5,23,7.5s23-3.36,23-7.5S1019.7,641,1007,641L1007,641z"/>
</g>
<g>
	<ellipse class="st26" cx="972.5" cy="616" rx="25.25" ry="5.75"/>
	<path d="M972.5,610.5c14.73,0,25,2.9,25,5.5s-10.27,5.5-25,5.5s-25-2.9-25-5.5S957.77,610.5,972.5,610.5 M972.5,610
		c-14.08,0-25.5,2.69-25.5,6s11.42,6,25.5,6s25.5-2.69,25.5-6S986.58,610,972.5,610L972.5,610z"/>
</g>
<g>
	<ellipse class="st26" cx="811.5" cy="636.5" rx="11.25" ry="4.25"/>
	<path d="M811.5,632.5c5.2,0,11,1.64,11,4s-5.8,4-11,4s-11-1.64-11-4S806.3,632.5,811.5,632.5 M811.5,632
		c-6.35,0-11.5,2.01-11.5,4.5s5.15,4.5,11.5,4.5s11.5-2.01,11.5-4.5S817.85,632,811.5,632L811.5,632z"/>
</g>
<g>
	<ellipse class="st26" cx="1111.5" cy="611.5" rx="17.25" ry="5.25"/>
	<path d="M1111.5,606.5c8.04,0,17,2.05,17,5s-8.96,5-17,5s-17-2.05-17-5S1103.46,606.5,1111.5,606.5 M1111.5,606
		c-9.67,0-17.5,2.46-17.5,5.5s7.83,5.5,17.5,5.5s17.5-2.46,17.5-5.5S1121.17,606,1111.5,606L1111.5,606z"/>
</g>
<ellipse class="st27" cx="987.5" cy="663.5" rx="6" ry="13"/>
<ellipse class="st27" cx="785" cy="603" rx="9.5" ry="19.5"/>
<ellipse class="st27" cx="829.5" cy="633" rx="18" ry="10.5"/>
<ellipse class="st27" cx="871" cy="699.5" rx="15.5" ry="10"/>
<circle class="st27" cx="995" cy="621" r="11.5"/>
<ellipse class="st27" cx="1021" cy="585.5" rx="5.5" ry="11"/>
<ellipse class="st27" cx="1129" cy="611.5" rx="5.5" ry="11"/>
<ellipse class="st27" cx="1242" cy="654.5" rx="3.5" ry="16"/>
<ellipse class="st27" cx="1255.5" cy="641" rx="17" ry="11.5"/>
<ellipse class="st27" cx="1234" cy="634" rx="7.5" ry="12.5"/>
<ellipse class="st28" cx="897.5" cy="702.5" rx="16" ry="10"/>
<ellipse class="st28" cx="981" cy="642.5" rx="13.5" ry="4"/>
<ellipse class="st29" cx="794" cy="575.5" rx="5.5" ry="11"/>
<g>
	<ellipse class="st30" cx="991" cy="604.5" rx="6.62" ry="12.12"/>
	<path d="M991,592.75c3.39,0,6.25,5.38,6.25,11.75s-2.86,11.75-6.25,11.75s-6.25-5.38-6.25-11.75S987.61,592.75,991,592.75 M991,592
		c-3.87,0-7,5.6-7,12.5s3.13,12.5,7,12.5s7-5.6,7-12.5S994.87,592,991,592L991,592z"/>
</g>
<g>
	<ellipse class="st30" cx="1030" cy="564.5" rx="6.62" ry="12.12"/>
	<path d="M1030,552.75c3.39,0,6.25,5.38,6.25,11.75s-2.86,11.75-6.25,11.75c-3.39,0-6.25-5.38-6.25-11.75
		S1026.61,552.75,1030,552.75 M1030,552c-3.87,0-7,5.6-7,12.5s3.13,12.5,7,12.5s7-5.6,7-12.5S1033.87,552,1030,552L1030,552z"/>
</g>
<g>
	<ellipse class="st30" cx="1244" cy="627" rx="5.62" ry="16.62"/>
	<path d="M1244,610.75c2.48,0,5.25,6.67,5.25,16.25s-2.77,16.25-5.25,16.25s-5.25-6.67-5.25-16.25S1241.52,610.75,1244,610.75
		 M1244,610c-3.31,0-6,7.61-6,17s2.69,17,6,17s6-7.61,6-17S1247.31,610,1244,610L1244,610z"/>
</g>
<g>
	<ellipse class="st30" cx="885" cy="680.5" rx="6.62" ry="9.12"/>
	<path d="M885,671.75c3.45,0,6.25,3.93,6.25,8.75s-2.8,8.75-6.25,8.75s-6.25-3.93-6.25-8.75S881.55,671.75,885,671.75 M885,671
		c-3.87,0-7,4.25-7,9.5s3.13,9.5,7,9.5s7-4.25,7-9.5S888.87,671,885,671L885,671z"/>
</g>
<g>
	<ellipse class="st30" cx="1013" cy="640.5" rx="5.62" ry="8.12"/>
	<path d="M1013,632.75c2.89,0,5.25,3.48,5.25,7.75s-2.36,7.75-5.25,7.75s-5.25-3.48-5.25-7.75S1010.11,632.75,1013,632.75 M1013,632
		c-3.31,0-6,3.81-6,8.5s2.69,8.5,6,8.5s6-3.81,6-8.5S1016.31,632,1013,632L1013,632z"/>
</g>
<g>
	<ellipse class="st31" cx="818" cy="646" rx="4.5" ry="9.5"/>
	<path d="M818,637c1.89,0,4,3.7,4,9s-2.11,9-4,9s-4-3.7-4-9S816.11,637,818,637 M818,636c-2.76,0-5,4.48-5,10s2.24,10,5,10
		s5-4.48,5-10S820.76,636,818,636L818,636z"/>
</g>
<path class="st32" d="M837.37,93.11l125.11,1.1c10.97,0.1,19.94-8.74,20-19.72l0.14-26.11l-144.98-3.77L837.37,93.11z"/>
<path class="st33" d="M960.6,83.5h-26.2c-5.47,0-9.9-4.43-9.9-9.9v-8.2c0-5.47,4.43-9.9,9.9-9.9h26.2c5.47,0,9.9,4.43,9.9,9.9v8.2
	C970.5,79.07,966.07,83.5,960.6,83.5z"/>
<text transform="matrix(1 0 0 1 849.2852 78.3945)"><tspan x="0" y="0" class="st34 st35 st36">SCORE</tspan><tspan x="61.42" y="0" class="st37 st35 st36">:</tspan></text>
<g>
	<polyline class="st16" points="943,62 943,69 952,69 	"/>
	<line class="st16" x1="949.5" y1="62.5" x2="949.5" y2="77.5"/>
</g>
<line class="st10" x1="1278.8" y1="472.79" x2="1243.29" y2="472.79"/>
<polygon class="st38" points="80,473 1286,473 1285.5,719.5 79.5,719.5 "/>
</svg>
