<?xml version="1.0" encoding="utf-8"?>
<!-- Generator: Adobe Illustrator 24.0.0, SVG Export Plug-In . SVG Version: 6.00 Build 0)  -->
<svg version="1.1" xmlns="http://www.w3.org/2000/svg" xmlns:xlink="http://www.w3.org/1999/xlink" x="0px" y="0px"
	 viewBox="0 0 1366 768" style="enable-background:new 0 0 1366 768;" xml:space="preserve">
<style type="text/css">
	.st0{display:none;}
	.st1{opacity:0.66;}
	.st2{display:inline;fill:#FF0000;stroke:#000000;stroke-width:3;stroke-miterlimit:10;}
	.st3{display:inline;fill:#FF0A0A;stroke:#000000;stroke-miterlimit:10;}
	.st4{opacity:0.53;}
	.st5{display:inline;}
	.st6{fill:#FF0000;stroke:#000000;stroke-width:3;stroke-miterlimit:10;}
	.st7{fill:#E50A0A;stroke:#000000;stroke-width:3;stroke-miterlimit:10;}
	.st8{fill:#FF0A0A;stroke:#000000;stroke-miterlimit:10;}
	.st9{display:inline;fill:#00A600;stroke:#000000;stroke-width:2;stroke-miterlimit:10;}
	.st10{display:inline;fill:#626262;stroke:#000000;stroke-width:2;stroke-miterlimit:10;}
	.st11{display:inline;fill:#6AA4FF;stroke:#000000;stroke-miterlimit:10;}
	.st12{fill:#1C1C1C;stroke:#000000;stroke-width:3;stroke-miterlimit:10;}
	.st13{fill:#FF0A0A;stroke:#000000;stroke-width:3;stroke-miterlimit:10;}
	.st14{fill:url(#SVGID_1_);stroke:#000000;stroke-miterlimit:10;}
	.st15{fill:url(#SVGID_2_);stroke:#000000;stroke-width:3;stroke-miterlimit:10;}
	.st16{fill:#C70A0A;stroke:#000000;stroke-width:3;stroke-miterlimit:10;}
	.st17{fill:url(#SVGID_3_);stroke:#000000;stroke-width:3;stroke-miterlimit:10;}
	.st18{fill:url(#SVGID_4_);stroke:#000000;stroke-width:3;stroke-miterlimit:10;}
	.st19{fill:none;stroke:#FFFFFF;stroke-width:11;stroke-miterlimit:10;}
	.st20{fill:none;stroke:#000000;stroke-width:8;stroke-miterlimit:10;}
	.st21{fill:url(#SVGID_5_);stroke:#000000;stroke-width:3;stroke-miterlimit:10;}
	.st22{fill:url(#SVGID_6_);stroke:#000000;stroke-width:3;stroke-miterlimit:10;}
	.st23{fill:url(#SVGID_7_);stroke:#000000;stroke-width:3;stroke-miterlimit:10;}
	.st24{fill:url(#SVGID_8_);stroke:#000000;stroke-width:3;stroke-miterlimit:10;}
	.st25{fill:url(#SVGID_9_);stroke:#000000;stroke-miterlimit:10;}
	.st26{fill:#FFF200;stroke:#FFF200;stroke-miterlimit:10;}
	.st27{fill:none;stroke:#FFF200;stroke-miterlimit:10;}
	.st28{fill:url(#SVGID_10_);stroke:#000000;stroke-width:3;stroke-miterlimit:10;}
	.st29{fill:url(#SVGID_11_);stroke:#000000;stroke-width:3;stroke-miterlimit:10;}
	.st30{fill:url(#SVGID_12_);stroke:#000000;stroke-width:3;stroke-miterlimit:10;}
	.st31{fill:url(#SVGID_13_);stroke:#000000;stroke-width:3;stroke-miterlimit:10;}
	.st32{fill:url(#SVGID_14_);stroke:#000000;stroke-width:3;stroke-miterlimit:10;}
	.st33{fill:url(#SVGID_15_);stroke:#000000;stroke-miterlimit:10;}
	.st34{fill:url(#SVGID_16_);stroke:#000000;stroke-miterlimit:10;}
	.st35{fill:#FF0000;stroke:#333333;stroke-width:2;stroke-miterlimit:10;}
	.st36{fill:none;stroke:#000000;stroke-width:3;stroke-miterlimit:10;}
	.st37{display:none;fill:#FF0000;stroke:#000000;stroke-miterlimit:10;}
	.st38{display:none;fill:#545454;stroke:#000000;stroke-miterlimit:10;}
	.st39{fill:#FF0000;stroke:#000000;stroke-miterlimit:10;}
	.st40{fill:#545454;stroke:#000000;stroke-miterlimit:10;}
	.st41{fill:url(#SVGID_17_);stroke:#000000;stroke-width:3;stroke-miterlimit:10;}
	.st42{fill:url(#SVGID_18_);stroke:#000000;stroke-width:3;stroke-miterlimit:10;}
	.st43{fill:none;stroke:#000000;stroke-miterlimit:10;}
	.st44{fill:#FF0A0A;stroke:#000000;stroke-width:0.25;stroke-miterlimit:10;}
</style>
<g id="alternate_background" class="st0">
	<g id="gull_wing_closing" class="st1">
		<polygon class="st2" points="716.93,191.51 825.52,150.77 1023.68,229.52 1127.88,289.18 1142.61,312.69 1015.28,245.44 
			833.03,175.1 746.49,206.19 		"/>
		<line class="st3" x1="833.23" y1="174.73" x2="825.72" y2="150.41"/>
		<line class="st3" x1="1015.04" y1="245.88" x2="1023.92" y2="229.08"/>
		<polygon class="st2" points="605.52,193.13 496.24,154.3 299.48,236.49 196.34,297.96 182.02,321.72 308.16,252.26 489.15,178.75 
			576.22,208.33 		"/>
		<line class="st3" x1="488.96" y1="178.39" x2="496.04" y2="153.94"/>
		<line class="st3" x1="308.41" y1="252.7" x2="299.24" y2="236.05"/>
	</g>
	<g id="gull_wing_opening_2" class="st4">
		<polygon class="st2" points="708.24,197.68 801.96,129.35 1013.97,152.15 1130.34,181.73 1150.83,200.43 1010.14,169.74 
			815.71,150.77 740.66,203.91 		"/>
		<line class="st3" x1="815.8" y1="150.37" x2="802.05" y2="128.95"/>
		<line class="st3" x1="1010.03" y1="170.23" x2="1014.08" y2="151.66"/>
		<polygon class="st2" points="605.4,191.9 511.68,123.57 299.67,146.37 183.3,175.95 162.81,194.65 303.51,163.96 497.93,145 
			572.98,198.13 		"/>
		<line class="st3" x1="497.84" y1="144.59" x2="511.59" y2="123.17"/>
		<line class="st3" x1="303.61" y1="164.45" x2="299.56" y2="145.89"/>
	</g>
	<g id="Gullwing_Doors_1_" class="st5">
		<polygon class="st6" points="700.36,198.48 777.36,111.75 989.36,88.84 1109.36,92.93 1133.36,106.84 989.36,106.84 
			795.36,129.75 733.36,197.67 		"/>
		<polygon class="st7" points="629.3,198.48 552.3,111.75 340.3,88.84 220.3,92.93 196.3,106.84 340.3,106.84 534.3,129.75 
			596.3,197.67 		"/>
		<line class="st8" x1="534.36" y1="129.34" x2="552.36" y2="111.34"/>
		<line class="st8" x1="340.36" y1="107.34" x2="340.36" y2="88.34"/>
		<line class="st8" x1="795.36" y1="129.34" x2="777.36" y2="111.34"/>
		<line class="st8" x1="989.36" y1="107.34" x2="989.36" y2="88.34"/>
	</g>
</g>
<g id="ground" class="st0">
	<polygon id="grass" class="st9" points="0.5,272 1366.5,272.65 1366.5,768.68 0.5,768.68 	"/>
	<polygon id="cement" class="st10" points="85.98,768.31 254.98,272.29 1057.22,272.35 1354.98,769.05 	"/>
	<rect x="0.5" y="-0.5" class="st11" width="1366" height="273"/>
</g>
<g id="base_color">
	<path class="st12" d="M298.52,660.41l156-16.36l223,37.64l212.98-37.92l169.02,25.65c0,0-47-77.73-156-81.01
		c-109-3.27-470-10.64-470-10.64S322.52,612.13,298.52,660.41z"/>
	<polygon class="st13" points="271.5,333.65 231.46,508.75 298.46,659.31 326.46,640.49 447.46,585.67 679.46,635.58 903.46,585.67 
		1031.46,641.31 1059.46,666.67 1125.46,508.75 1059.5,321.38 965.5,248.56 812.46,196.19 665.5,204.37 497.46,196.19 353.5,253.47 
			"/>
	<linearGradient id="SVGID_1_" gradientUnits="userSpaceOnUse" x1="679.5" y1="597.942" x2="679.5" y2="597.942">
		<stop  offset="0.9709" style="stop-color:#FFD200"/>
		<stop  offset="0.9712" style="stop-color:#F6CA00"/>
		<stop  offset="0.9723" style="stop-color:#C8A500"/>
		<stop  offset="0.9736" style="stop-color:#9D8100"/>
		<stop  offset="0.9751" style="stop-color:#776200"/>
		<stop  offset="0.9766" style="stop-color:#574700"/>
		<stop  offset="0.9783" style="stop-color:#3B3100"/>
		<stop  offset="0.9802" style="stop-color:#251F00"/>
		<stop  offset="0.9825" style="stop-color:#141100"/>
		<stop  offset="0.9853" style="stop-color:#090700"/>
		<stop  offset="0.9892" style="stop-color:#020200"/>
		<stop  offset="1" style="stop-color:#000000"/>
	</linearGradient>
	<path class="st14" d="M679.5,597.94"/>
</g>
<g id="shade">
	<polyline class="st7" points="678.47,400.18 359.47,248.8 268.61,335.5 231.47,505.73 298.47,656.28 325.47,637.46 	"/>
</g>
<g id="details">
	<polygon class="st13" points="672.86,403.2 964.86,249.37 806.86,195.37 664.5,200.28 491.86,195.37 353.5,253.47 	"/>
	<linearGradient id="SVGID_2_" gradientUnits="userSpaceOnUse" x1="376.8924" y1="294.786" x2="941.8924" y2="294.786">
		<stop  offset="0" style="stop-color:#FFFFFF"/>
		<stop  offset="7.380247e-03" style="stop-color:#F6F6F6"/>
		<stop  offset="0.0477" style="stop-color:#C8C8C8"/>
		<stop  offset="0.0931" style="stop-color:#9D9D9D"/>
		<stop  offset="0.1419" style="stop-color:#777777"/>
		<stop  offset="0.195" style="stop-color:#575757"/>
		<stop  offset="0.2537" style="stop-color:#3B3B3B"/>
		<stop  offset="0.32" style="stop-color:#252525"/>
		<stop  offset="0.3974" style="stop-color:#141414"/>
		<stop  offset="0.4931" style="stop-color:#090909"/>
		<stop  offset="0.6274" style="stop-color:#020202"/>
		<stop  offset="1" style="stop-color:#000000"/>
	</linearGradient>
	<polygon class="st15" points="663.5,218.28 496.5,202.73 376.89,253.19 670.5,386.84 941.89,253.19 808.5,202.73 	"/>
	<g id="headlights">
		<polyline class="st13" points="412.88,512.57 325.54,640.31 231.54,508.57 323.54,403.02 412.54,512.66 371.5,377.02 
			323.54,403.02 		"/>
		<polyline class="st13" points="950.42,500.38 1033.42,403.83 1125.42,509.38 1031.42,641.11 944.08,513.38 		"/>
		<g>
			<polyline class="st16" points="679.5,597.94 393.54,508.57 322.54,428.39 253.54,508.57 327.54,616.58 393.54,508.57 			"/>
			<polyline class="st16" points="678.54,635.4 679.5,597.94 963.08,508.42 1034.08,428.24 1103.08,508.42 1029.08,616.43 
				963.08,508.42 			"/>
		</g>
		<linearGradient id="SVGID_3_" gradientUnits="userSpaceOnUse" x1="253.9536" y1="522.1899" x2="393.9536" y2="522.1899">
			<stop  offset="0" style="stop-color:#FFFFFF"/>
			<stop  offset="0.0438" style="stop-color:#D6D6D6"/>
			<stop  offset="0.0993" style="stop-color:#AAAAAA"/>
			<stop  offset="0.1606" style="stop-color:#818181"/>
			<stop  offset="0.2261" style="stop-color:#5E5E5E"/>
			<stop  offset="0.2971" style="stop-color:#414141"/>
			<stop  offset="0.3755" style="stop-color:#292929"/>
			<stop  offset="0.4643" style="stop-color:#171717"/>
			<stop  offset="0.5695" style="stop-color:#0A0A0A"/>
			<stop  offset="0.707" style="stop-color:#020202"/>
			<stop  offset="1" style="stop-color:#000000"/>
		</linearGradient>
		<polygon class="st17" points="322.95,428.09 253.95,508.28 327.95,616.29 393.95,508.28 		"/>
		<linearGradient id="SVGID_4_" gradientUnits="userSpaceOnUse" x1="964.0668" y1="522.5437" x2="1104.0669" y2="522.5437">
			<stop  offset="0" style="stop-color:#FFFFFF"/>
			<stop  offset="0.0438" style="stop-color:#D6D6D6"/>
			<stop  offset="0.0993" style="stop-color:#AAAAAA"/>
			<stop  offset="0.1606" style="stop-color:#818181"/>
			<stop  offset="0.2261" style="stop-color:#5E5E5E"/>
			<stop  offset="0.2971" style="stop-color:#414141"/>
			<stop  offset="0.3755" style="stop-color:#292929"/>
			<stop  offset="0.4643" style="stop-color:#171717"/>
			<stop  offset="0.5695" style="stop-color:#0A0A0A"/>
			<stop  offset="0.707" style="stop-color:#020202"/>
			<stop  offset="1" style="stop-color:#000000"/>
		</linearGradient>
		<polygon class="st18" points="1033.07,428.51 964.07,508.7 1029.54,616.58 1104.07,508.7 		"/>
		<polygon class="st13" points="1034.54,403.84 958.5,377.02 944.08,513.38 		"/>
		<g>
			<polyline class="st19" points="1034.04,432.89 1034.04,504.09 998.01,564.63 			"/>
			<line class="st19" x1="1034.54" y1="502.03" x2="1083.59" y2="538.34"/>
			<polygon class="st20" points="1032.82,428.1 963.82,508.29 1029.29,616.17 1103.82,508.29 			"/>
		</g>
		<g>
			<polyline class="st19" points="323.54,433.7 323.54,504.91 359.57,565.45 			"/>
			<line class="st19" x1="323.04" y1="502.84" x2="273.99" y2="539.15"/>
			<polygon class="st20" points="324.77,428.92 393.77,509.11 328.29,616.99 253.77,509.11 			"/>
		</g>
	</g>
	<linearGradient id="SVGID_5_" gradientUnits="userSpaceOnUse" x1="670.5" y1="492.1851" x2="679" y2="492.1851">
		<stop  offset="0" style="stop-color:#FFFFFF"/>
		<stop  offset="1" style="stop-color:#000000"/>
	</linearGradient>
	<line class="st21" x1="679" y1="597.53" x2="670.5" y2="386.84"/>
	<linearGradient id="SVGID_6_" gradientUnits="userSpaceOnUse" x1="664.5" y1="209.2805" x2="664.5" y2="209.2805">
		<stop  offset="0" style="stop-color:#FFFFFF"/>
		<stop  offset="1" style="stop-color:#000000"/>
	</linearGradient>
	<line class="st22" x1="664.5" y1="218.28" x2="664.5" y2="200.28"/>
	<line class="st12" x1="678.18" y1="681.81" x2="678.32" y2="635.17"/>
	<line class="st12" x1="455.5" y1="631.5" x2="447.5" y2="585.67"/>
	<line class="st12" x1="897.5" y1="632.5" x2="903.5" y2="585.67"/>
	<linearGradient id="SVGID_7_" gradientUnits="userSpaceOnUse" x1="958.5" y1="313.6054" x2="964.5" y2="313.6054">
		<stop  offset="0" style="stop-color:#FFFFFF"/>
		<stop  offset="1" style="stop-color:#000000"/>
	</linearGradient>
	<line class="st23" x1="964.5" y1="250.19" x2="958.5" y2="377.02"/>
	<linearGradient id="SVGID_8_" gradientUnits="userSpaceOnUse" x1="353.5" y1="313.6054" x2="371.5" y2="313.6054">
		<stop  offset="0" style="stop-color:#FFFFFF"/>
		<stop  offset="1" style="stop-color:#000000"/>
	</linearGradient>
	<line class="st24" x1="353.5" y1="250.19" x2="371.5" y2="377.02"/>
	<g id="LamboLogo">
		<linearGradient id="SVGID_9_" gradientUnits="userSpaceOnUse" x1="667.7499" y1="578.22" x2="688.7499" y2="578.22">
			<stop  offset="0.9709" style="stop-color:#FFD200"/>
			<stop  offset="0.9712" style="stop-color:#F6CA00"/>
			<stop  offset="0.9723" style="stop-color:#C8A500"/>
			<stop  offset="0.9736" style="stop-color:#9D8100"/>
			<stop  offset="0.9751" style="stop-color:#776200"/>
			<stop  offset="0.9766" style="stop-color:#574700"/>
			<stop  offset="0.9783" style="stop-color:#3B3100"/>
			<stop  offset="0.9802" style="stop-color:#251F00"/>
			<stop  offset="0.9825" style="stop-color:#141100"/>
			<stop  offset="0.9853" style="stop-color:#090700"/>
			<stop  offset="0.9892" style="stop-color:#020200"/>
			<stop  offset="1" style="stop-color:#000000"/>
		</linearGradient>
		<path class="st25" d="M668.82,569.14c3.01-1.89,10.16-5.06,18.82,0.11c0.91,0.54,1.33,1.73,0.99,2.8
			c-1.25,4.04-4.61,13.73-9,17.46c-0.74,0.63-1.78,0.63-2.55,0.04c-1.78-1.37-4.98-5.45-9.19-17.55
			C667.52,570.93,667.91,569.72,668.82,569.14z"/>
		<path class="st26" d="M678.13,586.49l-2.29-9.57c0,0,0.85-2.03,1.63-2.28c0,0-1.52-1.08-1.95-0.89c-0.43,0.19,0.67-2.32,3.95-0.52
			c0,0,3.26,3.49,2.92,6.2C682.39,579.43,681,583.04,678.13,586.49z"/>
		<path class="st27" d="M671.54,572.6c0,0,7.68-5.49,14.15,1.07"/>
	</g>
	<linearGradient id="SVGID_10_" gradientUnits="userSpaceOnUse" x1="491.5" y1="199.0526" x2="496.5" y2="199.0526">
		<stop  offset="0" style="stop-color:#FFFFFF"/>
		<stop  offset="1" style="stop-color:#000000"/>
	</linearGradient>
	<line class="st28" x1="496.5" y1="202.73" x2="491.5" y2="195.37"/>
	<linearGradient id="SVGID_11_" gradientUnits="userSpaceOnUse" x1="808.5" y1="199.0526" x2="808.5" y2="199.0526">
		<stop  offset="0" style="stop-color:#FFFFFF"/>
		<stop  offset="1" style="stop-color:#000000"/>
	</linearGradient>
	<line class="st29" x1="808.5" y1="202.73" x2="808.5" y2="195.37"/>
	<linearGradient id="SVGID_12_" gradientUnits="userSpaceOnUse" x1="353.5" y1="253.4652" x2="377" y2="253.4652">
		<stop  offset="0" style="stop-color:#FFFFFF"/>
		<stop  offset="1" style="stop-color:#000000"/>
	</linearGradient>
	<line class="st30" x1="377" y1="253.47" x2="353.5" y2="253.47"/>
	<linearGradient id="SVGID_13_" gradientUnits="userSpaceOnUse" x1="941.5" y1="253.4652" x2="941.5" y2="253.4652">
		<stop  offset="0" style="stop-color:#FFFFFF"/>
		<stop  offset="1" style="stop-color:#000000"/>
	</linearGradient>
	<path class="st31" d="M941.5,253.47"/>
	<linearGradient id="SVGID_14_" gradientUnits="userSpaceOnUse" x1="941.5" y1="251.0105" x2="965.5" y2="251.0105">
		<stop  offset="0" style="stop-color:#FFFFFF"/>
		<stop  offset="1" style="stop-color:#000000"/>
	</linearGradient>
	<line class="st32" x1="941.5" y1="253.47" x2="965.5" y2="248.56"/>
	
		<linearGradient id="SVGID_15_" gradientUnits="userSpaceOnUse" x1="1040.1002" y1="595.266" x2="1064.1118" y2="595.266" gradientTransform="matrix(0.419 0.908 -0.908 0.419 1001.86 -898.9596)">
		<stop  offset="0.9709" style="stop-color:#323232"/>
		<stop  offset="0.9726" style="stop-color:#252525"/>
		<stop  offset="0.9757" style="stop-color:#141414"/>
		<stop  offset="0.9796" style="stop-color:#090909"/>
		<stop  offset="0.985" style="stop-color:#020202"/>
		<stop  offset="1" style="stop-color:#000000"/>
	</linearGradient>
	<path class="st33" d="M921.72,283.49l34.22,0.51c0,0,8.13,2.62-13.35,6.41c0,0-33.2,13.67-50.88,24.79c0,0-12.44,7.43-8.7,11.71
		c0,0-6.25,5.43-11.52,4.35l-27.24-10.55L921.72,283.49z"/>
	
		<linearGradient id="SVGID_16_" gradientUnits="userSpaceOnUse" x1="1003.8511" y1="686.7899" x2="1027.8628" y2="686.7899" gradientTransform="matrix(-0.419 0.908 0.908 0.419 225.2446 -898.9596)">
		<stop  offset="0.9709" style="stop-color:#323232"/>
		<stop  offset="0.9726" style="stop-color:#252525"/>
		<stop  offset="0.9757" style="stop-color:#141414"/>
		<stop  offset="0.9796" style="stop-color:#090909"/>
		<stop  offset="0.985" style="stop-color:#020202"/>
		<stop  offset="1" style="stop-color:#000000"/>
	</linearGradient>
	<path class="st34" d="M403.68,288.92l-34.22,0.51c0,0-8.13,2.62,13.35,6.41c0,0,33.2,13.67,50.88,24.79c0,0,12.44,7.43,8.7,11.71
		c0,0,6.25,5.43,11.52,4.35l27.24-10.55L403.68,288.92z"/>
	<polygon class="st6" points="400.79,649.52 457.79,679.82 491.79,654.72 678.79,702.33 856.79,652.12 894.79,687.61 972.5,656.5 
		897.5,632.5 856.69,643 678.5,674.5 492.31,642.89 455.5,631.5 	"/>
	<line class="st6" x1="678.5" y1="702.5" x2="678.5" y2="665"/>
	<line class="st6" x1="455.5" y1="631.5" x2="457.5" y2="679.5"/>
	<line class="st6" x1="897.5" y1="632.5" x2="894.5" y2="687.5"/>
	<path class="st35" d="M903.5,590.5"/>
	<path class="st35" d="M894.5,687.5"/>
	<path class="st35" d="M496,596"/>
	<path class="st35" d="M458,680"/>
	<polyline class="st36" points="354.5,655.5 449.5,608.5 678.5,654.5 900.5,610.36 1025.5,664.5 	"/>
	<polygon class="st37" points="490.77,196.4 470.5,190.5 365.25,233.45 359.27,250.03 	"/>
	<polygon id="second_air_intake_1.1" class="st38" points="364.27,245.03 482.77,196.5 470.72,193.53 368.29,235.12 	"/>
	<polygon id="second_air_intack_2" class="st37" points="811.27,197.03 838.27,189.03 953.81,228.63 959.81,245.63 	"/>
	<polygon id="second_air_intack_2.2" class="st38" points="954.81,240.63 822.27,197.03 837.27,192.03 950.81,230.63 	"/>
</g>
<g id="doors_and_air_intakes">
	<g id="Gullwing_Doors">
		<polygon class="st6" points="700.5,198.64 777.5,111.91 989.5,89 1109.5,93.09 1133.5,107 989.5,107 795.5,129.91 733.5,197.83 		
			"/>
		<polygon class="st7" points="629.45,198.64 552.45,111.91 340.45,89 220.45,93.09 196.45,107 340.45,107 534.45,129.91 
			596.45,197.83 		"/>
		<line class="st8" x1="534.5" y1="129.5" x2="552.5" y2="111.5"/>
		<line class="st8" x1="340.5" y1="107.5" x2="340.5" y2="88.5"/>
		<line class="st8" x1="795.5" y1="129.5" x2="777.5" y2="111.5"/>
		<line class="st8" x1="989.5" y1="107.5" x2="989.5" y2="88.5"/>
	</g>
	<g id="Air_Intakes">
		<polygon class="st39" points="491.5,195.5 471.5,190.5 365.5,233.5 359.5,250.5 		"/>
		<polygon class="st40" points="364.5,245.5 482.5,196.5 470.5,193.5 368.5,235.5 		"/>
		<polygon class="st39" points="812.5,196.5 839.5,188.5 955.05,228.1 961.05,245.1 		"/>
		<polygon class="st40" points="956.05,240.1 823.5,196.5 838.5,191.5 952.05,230.1 		"/>
	</g>
	<g id="Tires">
		<linearGradient id="SVGID_17_" gradientUnits="userSpaceOnUse" x1="244.5" y1="595.75" x2="295" y2="595.75">
			<stop  offset="0" style="stop-color:#FFFFFF"/>
			<stop  offset="7.380247e-03" style="stop-color:#F6F6F6"/>
			<stop  offset="0.0477" style="stop-color:#C8C8C8"/>
			<stop  offset="0.0931" style="stop-color:#9D9D9D"/>
			<stop  offset="0.1419" style="stop-color:#777777"/>
			<stop  offset="0.195" style="stop-color:#575757"/>
			<stop  offset="0.2537" style="stop-color:#3B3B3B"/>
			<stop  offset="0.32" style="stop-color:#252525"/>
			<stop  offset="0.3974" style="stop-color:#141414"/>
			<stop  offset="0.4931" style="stop-color:#090909"/>
			<stop  offset="0.6274" style="stop-color:#020202"/>
			<stop  offset="1" style="stop-color:#000000"/>
		</linearGradient>
		<path class="st41" d="M244.5,539.5l3.93,94c0.43,10.34,8.94,18.5,19.28,18.5H295L244.5,539.5z"/>
		
			<linearGradient id="SVGID_18_" gradientUnits="userSpaceOnUse" x1="335.7834" y1="600" x2="384.7834" y2="600" gradientTransform="matrix(-1 0 0 1 1447.7833 0)">
			<stop  offset="0" style="stop-color:#FFFFFF"/>
			<stop  offset="7.380247e-03" style="stop-color:#F6F6F6"/>
			<stop  offset="0.0477" style="stop-color:#C8C8C8"/>
			<stop  offset="0.0931" style="stop-color:#9D9D9D"/>
			<stop  offset="0.1419" style="stop-color:#777777"/>
			<stop  offset="0.195" style="stop-color:#575757"/>
			<stop  offset="0.2537" style="stop-color:#3B3B3B"/>
			<stop  offset="0.32" style="stop-color:#252525"/>
			<stop  offset="0.3974" style="stop-color:#141414"/>
			<stop  offset="0.4931" style="stop-color:#090909"/>
			<stop  offset="0.6274" style="stop-color:#020202"/>
			<stop  offset="1" style="stop-color:#000000"/>
		</linearGradient>
		<path class="st42" d="M1112,542l-3.81,96.93c-0.42,10.66-8.67,19.07-18.71,19.07H1063L1112,542z"/>
	</g>
	<g id="mirrors">
		<polygon class="st13" points="345.26,223.5 310.05,223.5 292.44,238.5 310.05,253.5 345.26,253.5 364.5,258.5 369.5,254.5 
			362.87,238.5 		"/>
		<line class="st8" x1="292.15" y1="238.5" x2="310.5" y2="239.14"/>
		<line class="st43" x1="310.5" y1="239.14" x2="345.15" y2="253.5"/>
		<line class="st43" x1="345.15" y1="223.5" x2="310.5" y2="239.14"/>
		<line class="st44" x1="310.5" y1="239.14" x2="362.59" y2="237.89"/>
		<polygon class="st13" points="971.75,220.5 1006.97,220.5 1024.58,235.5 1006.97,250.5 971.75,250.5 952.52,255.5 947.52,251.5 
			954.14,235.5 		"/>
		<line class="st8" x1="1024.86" y1="235.5" x2="1006.52" y2="236.14"/>
		<line class="st43" x1="1006.52" y1="236.14" x2="971.86" y2="250.5"/>
		<line class="st43" x1="971.86" y1="220.5" x2="1006.52" y2="236.14"/>
		<line class="st44" x1="1006.52" y1="236.14" x2="954.42" y2="234.89"/>
	</g>
</g>
</svg>
