<?xml version="1.0" encoding="utf-8"?>
<!-- Generator: Adobe Illustrator 24.0.0, SVG Export Plug-In . SVG Version: 6.00 Build 0)  -->
<svg version="1.1" id="Layer_1" xmlns="http://www.w3.org/2000/svg" xmlns:xlink="http://www.w3.org/1999/xlink" x="0px" y="0px"
	 viewBox="0 0 1366 768" style="enable-background:new 0 0 1366 768;" xml:space="preserve">
<style type="text/css">
	.st0{fill:#545454;stroke:#000000;stroke-width:5;stroke-miterlimit:10;}
	.st1{fill:#FE0000;stroke:#000000;stroke-miterlimit:10;}
	.st2{fill:#FF0000;stroke:#000000;stroke-miterlimit:10;}
	.st3{fill:url(#SVGID_1_);stroke:#000000;stroke-miterlimit:10;}
	.st4{fill:#FFFFFF;stroke:#000000;stroke-miterlimit:10;}
	.st5{fill:#545454;stroke:#000000;stroke-miterlimit:10;}
	.st6{fill:none;stroke:#000000;stroke-miterlimit:10;}
	.st7{fill:none;stroke:#FFFFFF;stroke-width:8;stroke-miterlimit:10;}
	.st8{fill:#E40000;stroke:#000000;stroke-miterlimit:10;}
	.st9{fill:#404040;stroke:#000000;stroke-miterlimit:10;}
	.st10{fill:url(#SVGID_2_);stroke:#000000;stroke-miterlimit:10;}
	.st11{fill:url(#SVGID_3_);stroke:#000000;stroke-miterlimit:10;}
	.st12{fill:url(#SVGID_4_);stroke:#000000;stroke-miterlimit:10;}
</style>
<circle class="st0" cx="569.5" cy="672.5" r="111"/>
<polygon class="st1" points="471,486.31 746.1,465.48 1065.35,348.13 1174,324 1368.5,324.5 1366.5,692.5 480.61,692.5 "/>
<path class="st2" d="M270,411l364.5,118.5c0,0-46.64,84.27-273.57,115.39"/>
<linearGradient id="SVGID_1_" gradientUnits="userSpaceOnUse" x1="204.5" y1="543.2742" x2="346.5923" y2="543.2742">
	<stop  offset="0" style="stop-color:#FFFFFF"/>
	<stop  offset="1" style="stop-color:#000000"/>
</linearGradient>
<polygon class="st3" points="268.01,415.51 346.59,533.85 204.5,671.04 204.59,529.85 "/>
<path class="st4" d="M205,482.68"/>
<path class="st5" d="M43.5,687.5"/>
<path class="st4" d="M205.5,563.62"/>
<path class="st6" d="M-109.5,680.5"/>
<path class="st7" d="M416,662"/>
<polyline class="st7" points="205,671 262,557 229.08,485.19 "/>
<line class="st7" x1="262" y1="557" x2="347" y2="534"/>
<polyline class="st2" points="352.5,532.5 270.5,410.5 204.5,529.5 267.92,415.15 346.5,533.5 204.93,670.18 205,692.5 364.5,692.5 
	"/>
<polyline class="st6" points="212.48,669.89 352.5,532.5 634,529 "/>
<path class="st2" d="M744.5,692.5h-540l0.43-22.32c0,0,321.57-59.68,539.57-204.68"/>
<line class="st2" x1="43.5" y1="687.5" x2="204.5" y2="670.5"/>
<polyline class="st6" points="205,662 230.5,517.5 346.5,533.5 "/>
<line class="st6" x1="230.5" y1="517.5" x2="204.5" y2="529.5"/>
<line class="st6" x1="230.5" y1="517.5" x2="268.5" y2="415.5"/>
<g>
	<g>
		<path class="st8" d="M204.5,530v-0.5v162.83l-97.7,4.17c0,0-38.88,0-63.8-9.39c0,0,27.91-22.95,63.8-33.38s1-74.05,1-74.05
			s-17.94,1.04-33.9-14.6c0,0,46.6-37.58,138.6-49.58"/>
		<path class="st6" d="M74,565.5c0,0,80-13,131-16"/>
		<path class="st9" d="M108,579.5l67-4c0,0,25,41,0,72l-65.21,5.18c0,0,14.71-1.2,13.96-29.19C123.75,623.49,117,595.5,108,579.5z"
			/>
	</g>
	<path class="st5" d="M120.99,613"/>
	<path class="st5" d="M184.91,602.51c0,0-48.41,3.99-69.41,4.99l-8,4l9,4l69.46-4.76C185.96,610.74,186.32,607.51,184.91,602.51z"/>
	<path class="st5" d="M122.05,578.5c0,0,20.4,31.77,4.93,72.51l10.52-1.26c0,0,14.24-37.51-5.88-71.26H122.05z"/>
	<path class="st5" d="M149.53,576.5c0,0,20.4,31.77,4.93,72.51l10.52-1.26c0,0,14.24-37.51-5.88-71.26H149.53z"/>
</g>
<linearGradient id="SVGID_2_" gradientUnits="userSpaceOnUse" x1="744.5" y1="395" x2="1315.5" y2="395">
	<stop  offset="0" style="stop-color:#FFFFFF"/>
	<stop  offset="1" style="stop-color:#000000"/>
</linearGradient>
<polygon class="st10" points="744.5,465.5 1065.5,348.5 1174.5,324.5 1315.5,324.5 1289.5,399.5 "/>
<polygon class="st2" points="1077.5,356.5 1121.5,410.5 1057.5,465.5 829.5,672.5 1319.5,672.5 1290.5,411.5 1306.5,356.5 "/>
<linearGradient id="SVGID_3_" gradientUnits="userSpaceOnUse" x1="1023.5" y1="436.5" x2="1302.5" y2="436.5">
	<stop  offset="0" style="stop-color:#FFFFFF"/>
	<stop  offset="1" style="stop-color:#000000"/>
</linearGradient>
<polygon class="st11" points="1083.5,452.5 1023.5,504.5 1297.5,512.5 1285.5,410.5 1302.5,360.5 1087.5,360.5 1129.5,411.5 "/>
<linearGradient id="SVGID_4_" gradientUnits="userSpaceOnUse" x1="1121.5" y1="411" x2="1290.5" y2="411">
	<stop  offset="0" style="stop-color:#FFFFFF"/>
	<stop  offset="1" style="stop-color:#000000"/>
</linearGradient>
<line class="st12" x1="1121.5" y1="410.5" x2="1290.5" y2="411.5"/>
<polygon class="st2" points="633.01,529.5 505.99,529.5 442.48,639.5 505.99,749.5 633.01,749.5 696.52,639.5 "/>
</svg>
