<?xml version="1.0" encoding="utf-8"?>
<!-- Generator: Adobe Illustrator 24.0.0, SVG Export Plug-In . SVG Version: 6.00 Build 0)  -->
<svg version="1.1" xmlns="http://www.w3.org/2000/svg" xmlns:xlink="http://www.w3.org/1999/xlink" x="0px" y="0px"
	 viewBox="0 0 1366 768" style="enable-background:new 0 0 1366 768;" xml:space="preserve">
<style type="text/css">
	.st0{fill:#666666;stroke:#000000;stroke-width:5;stroke-miterlimit:10;}
	.st1{fill:#4D4D4D;stroke:#000000;stroke-width:5;stroke-miterlimit:10;}
	.st2{fill:url(#SVGID_1_);stroke:#000000;stroke-miterlimit:10;}
	.st3{fill:url(#SVGID_2_);stroke:#000000;stroke-miterlimit:10;}
	.st4{fill:#181818;stroke:#000000;stroke-miterlimit:10;}
	.st5{fill:#1C1C1C;stroke:#000000;stroke-miterlimit:10;}
	.st6{fill:#212121;stroke:#000000;stroke-miterlimit:10;}
	.st7{fill:#FF8700;stroke:#000000;stroke-miterlimit:10;}
	.st8{fill:none;stroke:#000000;stroke-miterlimit:10;}
	.st9{fill:url(#SVGID_3_);stroke:#000000;stroke-miterlimit:10;}
	.st10{fill:url(#SVGID_4_);stroke:#000000;stroke-miterlimit:10;}
	.st11{fill:none;stroke:#FFFFFF;stroke-width:5;stroke-miterlimit:10;}
	.st12{fill:none;stroke:#000000;stroke-width:4;stroke-miterlimit:10;}
	.st13{fill:url(#SVGID_5_);stroke:#000000;stroke-width:5;stroke-miterlimit:10;}
	.st14{fill:none;stroke:#FFFFFF;stroke-width:4;stroke-miterlimit:10;}
	.st15{fill:none;stroke:#000000;stroke-width:5;stroke-miterlimit:10;}
	.st16{fill:url(#SVGID_6_);stroke:#000000;stroke-miterlimit:10;}
	.st17{fill:url(#SVGID_7_);stroke:#000000;stroke-miterlimit:10;}
	.st18{fill:url(#SVGID_8_);stroke:#000000;stroke-miterlimit:10;}
	.st19{fill:url(#SVGID_9_);stroke:#000000;stroke-miterlimit:10;}
	.st20{fill:url(#SVGID_10_);stroke:#000000;stroke-miterlimit:10;}
	.st21{fill:url(#SVGID_11_);stroke:#000000;stroke-miterlimit:10;}
	.st22{fill:url(#SVGID_12_);stroke:#000000;stroke-miterlimit:10;}
	.st23{fill:url(#SVGID_13_);stroke:#000000;stroke-miterlimit:10;}
	.st24{fill:url(#SVGID_14_);stroke:#000000;stroke-miterlimit:10;}
	.st25{fill:url(#SVGID_15_);stroke:#000000;stroke-miterlimit:10;}
	.st26{fill:url(#SVGID_16_);stroke:#000000;stroke-miterlimit:10;}
	.st27{fill:none;stroke:#FFF200;stroke-miterlimit:10;}
	.st28{fill:#FFF200;stroke:#FFF200;stroke-miterlimit:10;}
	.st29{fill:#8E3400;}
	.st30{fill:url(#SVGID_17_);stroke:#000000;stroke-miterlimit:10;}
	.st31{fill:url(#SVGID_18_);stroke:#000000;stroke-miterlimit:10;}
	.st32{fill:none;stroke:#F17B20;stroke-width:4;stroke-miterlimit:10;}
	.st33{fill:#231F20;stroke:#231F20;stroke-miterlimit:10;}
</style>
<g id="Layer_3">
	<g>
		<polyline class="st0" points="930.76,356.26 896.78,353.66 924.51,423.24 		"/>
		
			<ellipse transform="matrix(0.155 -0.9879 0.9879 0.155 282.3588 1264.5966)" class="st0" cx="880.45" cy="467.23" rx="114.98" ry="57.28"/>
		<polyline class="st0" points="864.27,581.14 898.26,583.74 870.53,514.17 		"/>
		
			<ellipse transform="matrix(0.1555 -0.9878 0.9878 0.1555 308.8482 1300.4414)" class="st1" cx="914.98" cy="469.59" rx="115.39" ry="57.28"/>
		
			<ellipse transform="matrix(0.1548 -0.9879 0.9879 0.1548 308.4619 1302.6978)" class="st0" cx="915.58" cy="471.07" rx="99.86" ry="49.85"/>
	</g>
	
		<ellipse transform="matrix(0.0455 -0.999 0.999 0.0455 399.3578 1366.6882)" class="st1" cx="914.87" cy="474.36" rx="17.16" ry="7.67"/>
	<g>
		<polyline class="st0" points="1178.64,175 1155.89,173.12 1174.45,223.64 		"/>
		
			<ellipse transform="matrix(0.1365 -0.9906 0.9906 0.1365 735.4516 1354.9302)" class="st0" cx="1144.96" cy="255.58" rx="83.35" ry="38.41"/>
		<polyline class="st0" points="1134.13,338.29 1156.88,340.18 1138.32,289.66 		"/>
		
			<ellipse transform="matrix(0.137 -0.9906 0.9906 0.137 753.2234 1379.1245)" class="st1" cx="1168.07" cy="257.3" rx="83.64" ry="38.41"/>
		
			<ellipse transform="matrix(0.1363 -0.9907 0.9907 0.1363 753.2899 1380.7393)" class="st0" cx="1168.48" cy="258.37" rx="72.39" ry="33.43"/>
	</g>
	
		<ellipse transform="matrix(0.0455 -0.999 0.999 0.0455 860.1254 1416.9563)" class="st1" cx="1171.56" cy="258.37" rx="13.16" ry="7.06"/>
</g>
<g id="body">
	<linearGradient id="SVGID_1_" gradientUnits="userSpaceOnUse" x1="879.7223" y1="95.6905" x2="1194.6628" y2="95.6905">
		<stop  offset="0.3094" style="stop-color:#323232"/>
		<stop  offset="0.425" style="stop-color:#222222"/>
		<stop  offset="0.6089" style="stop-color:#0F0F0F"/>
		<stop  offset="0.7983" style="stop-color:#040404"/>
		<stop  offset="1" style="stop-color:#000000"/>
	</linearGradient>
	<path class="st2" d="M966.44,103.88V90.15c0,0-43.04,0.24-86.72,7.81l15.66-10.89c0,0,40.3-10.91,85.08-10.35
		c44.78,0.56,49.94-1.12,142.51,5.04c0,0,31.94,1.5,71.7,19.17c0,0,0.21,9.39-7.53,13.77c0,0-45.12-17.12-82.84-19l-0.71,17.77
		l-9.98-2.89l0.26-16.02c0,0-55.58-10.17-116.87-4.78l-0.65,14.88"/>
	<linearGradient id="SVGID_2_" gradientUnits="userSpaceOnUse" x1="1059.4811" y1="129.5723" x2="1156.5288" y2="129.5723">
		<stop  offset="0.9709" style="stop-color:#323232"/>
		<stop  offset="0.9726" style="stop-color:#252525"/>
		<stop  offset="0.9757" style="stop-color:#141414"/>
		<stop  offset="0.9796" style="stop-color:#090909"/>
		<stop  offset="0.985" style="stop-color:#020202"/>
		<stop  offset="1" style="stop-color:#000000"/>
	</linearGradient>
	<path class="st3" d="M1059.48,113.95l34.13-3.38c0,0,48.3,13.45,57.65,20.54l5.27,8.78l-7.05,8.68L1059.48,113.95z"/>
	<path class="st4" d="M903.16,395.68c0,0,41.16-86.31,66.69,5.1c0,0,6.93,62.09-4.73,94.55c0,0,101.49-112.21,182.18-155.7
		l1.85-5.13L952.1,322.06l-76.37,86.63L903.16,395.68z"/>
	<path class="st5" d="M856.54,568.8l-7.18,29.94c0,0-120.4,59.16-173.61,70.23c0,0-64.28,4.31-86.12,2.15l-19.68-19.68
		c0,0-66.74-4.31-221.44-40.91c0,0-56.74-54.46-66.44-86.01H256.1c0,0-11.13-8.26,13.6-50.35l10.47-1.25l526.71,62.54"/>
	<path class="st6" d="M561.7,561.03l103.84,41.29l72.87,2.72c0,0,11.87-3.03,13.08-13.01l-23.14-42.37l-26.78-6.5L561.7,561.03z"/>
	<path class="st5" d="M916,298.26l62.7,2.88c0,0,98.98-104.18,94.34-123.34l49.93-29.03l-58.63-29.9l-98.11,16.55
		C966.22,135.42,904.97,261.69,916,298.26z"/>
	<path class="st7" d="M280.17,472.93l-21.51,2.57c0,0-56.93-66.3,66.86-181.5c0,0,68.63-68.63,133.59-71.08
		c0,0,154.43-87.02,197.32-99.27c42.9-12.26,116.21-28.87,178.99-27.55c62.78,1.32,200.68,13.5,200.68,13.5s70.24,9.69,113.37,38.99
		l-9.72,11.99l-74.35-33.88c0,0-87.89-4.07-103.35,28.48s-36.62,83-42.32,137.53l45.57,1.63c0,0,6.51,6.51,25.23-17.09
		c18.72-23.6,76.49-74.87,78.12-107.42h10.58l1.63-17.9l7.32-4.07l25.05,0.95l26.51,11.77l16.77-20.67l-5.27-8.78l38.99,14.4
		c0,0,22.83,7.38,20.73,45.31s-5.97,35.13-5.97,35.13s13-65.34-11.94-31.97c-24.94,33.37-43.91,140.51-43.91,140.51l-61.12,25.99
		L970.7,468.69l3.16-102.22c0,0-5.97-60.77-59.37,11.94S856.54,568.8,856.54,568.8l-32.32,14.05c0,0-4.57,2.11-13.35-2.81
		c-8.78-4.92-65.69-44.26-65.69-44.26s-92.03,16.86-177.75,24.94l-66.39,3.51l99.76,46.72l-3.51,18.62l-56.56-16.86
		c0,0-184.42-21.08-198.82-32.32c-14.4-11.24-58.66-58.66-62.18-77.98l11.59-13L280.17,472.93z"/>
	<path class="st7" d="M276.16,465.8c0,0,41.7,59.33,57.61,64.92c0,0,95.01,15.05,162.51,10.32l-7.31,21.93c0,0-1.17,1.97,12.08,1.27
		"/>
	<path class="st8" d="M890.25,293.34l-231.61,6.91l-146.23-28.63c-40.56-19.43-52.49-44.65-52.49-44.65
		c59.65-37.84,195.65-100.55,195.65-100.55c19.77-2.73,265.86,21.91,276.1,22.84c10.14,0.91,7.08,4.34,7.16,4.43
		c-0.6,0.65-1.26,1.62-1.99,2.86c-13.46,23.01-48.11,142-48.11,142s-16.7,5.79-37.49,12.27s-188.5,112.14-188.5,112.14l-40.22,13.63
		l-21.47,19.77c-63.06,6.48-182.44-11.82-182.44-11.82l-19.51-14.91l-28.07-0.63c-28.23-15.54-67.4-60.9-67.4-60.9l14.43-18.4
		l3.1-16.47l103.92-103.68"/>
	<linearGradient id="SVGID_3_" gradientUnits="userSpaceOnUse" x1="601.0366" y1="450.4648" x2="790.7755" y2="450.4648">
		<stop  offset="0" style="stop-color:#FFFFFF"/>
		<stop  offset="8.335274e-03" style="stop-color:#EFEFEF"/>
		<stop  offset="0.0368" style="stop-color:#BDBDBD"/>
		<stop  offset="0.0674" style="stop-color:#909090"/>
		<stop  offset="0.0995" style="stop-color:#696969"/>
		<stop  offset="0.1334" style="stop-color:#494949"/>
		<stop  offset="0.1698" style="stop-color:#2E2E2E"/>
		<stop  offset="0.2094" style="stop-color:#1A1A1A"/>
		<stop  offset="0.254" style="stop-color:#0B0B0B"/>
		<stop  offset="0.3076" style="stop-color:#030303"/>
		<stop  offset="0.3946" style="stop-color:#000000"/>
	</linearGradient>
	<path class="st9" d="M662.73,422.96l118.51-26.02c0,0,14.9-0.71,7.45,7.1c-7.45,7.8-94.15,94.07-94.15,94.07L628.09,504
		l-27.06-47.64l21.47-19.77L662.73,422.96z"/>
	<path class="st8" d="M830.14,188.13"/>
	<linearGradient id="SVGID_4_" gradientUnits="userSpaceOnUse" x1="458.8005" y1="213.6323" x2="939.0355" y2="213.6323">
		<stop  offset="0.4466" style="stop-color:#000000"/>
		<stop  offset="0.6487" style="stop-color:#020202"/>
		<stop  offset="0.7215" style="stop-color:#090909"/>
		<stop  offset="0.7734" style="stop-color:#141414"/>
		<stop  offset="0.8154" style="stop-color:#252525"/>
		<stop  offset="0.8514" style="stop-color:#3B3B3B"/>
		<stop  offset="0.8832" style="stop-color:#575757"/>
		<stop  offset="0.912" style="stop-color:#777777"/>
		<stop  offset="0.9385" style="stop-color:#9D9D9D"/>
		<stop  offset="0.9631" style="stop-color:#C8C8C8"/>
		<stop  offset="0.985" style="stop-color:#F6F6F6"/>
		<stop  offset="0.989" style="stop-color:#FFFFFF"/>
	</linearGradient>
	<path class="st10" d="M655.57,126.41c0.45-3.09,264.43,19.78,276.1,22.84c12.14,3.19,5.75,5.98,5.16,7.29l-45.48,137.02
		l-232.85,7.57l-146.52-28.65c0,0-45.61-19.45-53.18-45.61C458.8,226.87,636.79,125.22,655.57,126.41z"/>
	<g>
		<polyline class="st11" points="683,418.51 678.21,474.64 638.59,503.07 		"/>
		<line class="st11" x1="678.21" y1="474.64" x2="738.41" y2="454.41"/>
	</g>
	<path class="st12" d="M662.73,422.96l118.51-26.02c0,0,14.9-0.71,7.45,7.1c-7.45,7.8-94.15,94.07-94.15,94.07L628.09,504
		l-27.06-47.64l21.47-19.77L662.73,422.96z"/>
	<path class="st12" d="M330.42,291.98l-12.37,57.73l-14.43,18.4L266.24,384v-15.93C266.24,368.07,290.43,326.26,330.42,291.98z"/>
	<linearGradient id="SVGID_5_" gradientUnits="userSpaceOnUse" x1="265.8676" y1="339.2855" x2="330.0413" y2="339.2855">
		<stop  offset="0.4886" style="stop-color:#000000"/>
		<stop  offset="0.989" style="stop-color:#FFFFFF"/>
	</linearGradient>
	<path class="st13" d="M330.04,293.27l-12.37,57.73l-14.43,18.4l-37.38,15.89v-15.93C265.87,369.36,290.06,327.55,330.04,293.27z"/>
	<polyline class="st14" points="306.57,314.53 299.95,360.48 318.05,349.71 266.24,379.98 	"/>
	<path class="st15" d="M330.42,291.98l-12.37,57.73l-14.43,18.4L266.24,384v-15.93C266.24,368.07,290.43,326.26,330.42,291.98z"/>
	<path class="st8" d="M750.16,596.33c0,0,18.15,6.22-81.02,70.6H589.7c0,0-2.71,3.3,11.11-55.98"/>
	<linearGradient id="SVGID_6_" gradientUnits="userSpaceOnUse" x1="927.8043" y1="252.1738" x2="973.0617" y2="252.1738">
		<stop  offset="0" style="stop-color:#FFFFFF"/>
		<stop  offset="7.380247e-03" style="stop-color:#F6F6F6"/>
		<stop  offset="0.0477" style="stop-color:#C8C8C8"/>
		<stop  offset="0.0931" style="stop-color:#9D9D9D"/>
		<stop  offset="0.1419" style="stop-color:#777777"/>
		<stop  offset="0.195" style="stop-color:#575757"/>
		<stop  offset="0.2537" style="stop-color:#3B3B3B"/>
		<stop  offset="0.32" style="stop-color:#252525"/>
		<stop  offset="0.3974" style="stop-color:#141414"/>
		<stop  offset="0.4931" style="stop-color:#090909"/>
		<stop  offset="0.6274" style="stop-color:#020202"/>
		<stop  offset="1" style="stop-color:#000000"/>
	</linearGradient>
	<path class="st16" d="M942.06,217.22c0,0,22.34,35.05,31.01,69.91H927.8C927.8,287.13,929.47,256.83,942.06,217.22z"/>
	<linearGradient id="SVGID_7_" gradientUnits="userSpaceOnUse" x1="1038.4591" y1="147.2997" x2="1086.478" y2="147.2997">
		<stop  offset="0.9709" style="stop-color:#323232"/>
		<stop  offset="0.9726" style="stop-color:#252525"/>
		<stop  offset="0.9757" style="stop-color:#141414"/>
		<stop  offset="0.9796" style="stop-color:#090909"/>
		<stop  offset="0.985" style="stop-color:#020202"/>
		<stop  offset="1" style="stop-color:#000000"/>
	</linearGradient>
	<polygon class="st17" points="1038.46,133.42 1046.74,127.96 1056.17,127.96 1086.48,148.79 1080.87,151.9 1078.18,166.08 
		1067.63,166.64 	"/>
	<linearGradient id="SVGID_8_" gradientUnits="userSpaceOnUse" x1="1038.4591" y1="147.9964" x2="1079.0057" y2="147.9964">
		<stop  offset="0.9709" style="stop-color:#000000"/>
		<stop  offset="0.975" style="stop-color:#000000"/>
		<stop  offset="1" style="stop-color:#000000"/>
	</linearGradient>
	<polygon class="st18" points="1038.46,133.42 1048.84,129.35 1079.01,151 1078.18,166.08 1067.63,166.64 	"/>
	<linearGradient id="SVGID_9_" gradientUnits="userSpaceOnUse" x1="1002.4161" y1="158.6741" x2="1067.6329" y2="158.6741">
		<stop  offset="0" style="stop-color:#FFFFFF"/>
		<stop  offset="7.380247e-03" style="stop-color:#F6F6F6"/>
		<stop  offset="0.0477" style="stop-color:#C8C8C8"/>
		<stop  offset="0.0931" style="stop-color:#9D9D9D"/>
		<stop  offset="0.1419" style="stop-color:#777777"/>
		<stop  offset="0.195" style="stop-color:#575757"/>
		<stop  offset="0.2537" style="stop-color:#3B3B3B"/>
		<stop  offset="0.32" style="stop-color:#252525"/>
		<stop  offset="0.3974" style="stop-color:#141414"/>
		<stop  offset="0.4931" style="stop-color:#090909"/>
		<stop  offset="0.6274" style="stop-color:#020202"/>
		<stop  offset="1" style="stop-color:#000000"/>
	</linearGradient>
	<path class="st19" d="M1060.61,183.93c0,0,6.46-8.27,7.03-18.93c0,0-13.03-21.99-24.37-30.83c0,0-30.7-2.69-40.85,2.11
		L1060.61,183.93z"/>
	<linearGradient id="SVGID_10_" gradientUnits="userSpaceOnUse" x1="945.3511" y1="208.4921" x2="1059.4811" y2="208.4921">
		<stop  offset="0" style="stop-color:#FFFFFF"/>
		<stop  offset="7.380247e-03" style="stop-color:#F6F6F6"/>
		<stop  offset="0.0477" style="stop-color:#C8C8C8"/>
		<stop  offset="0.0931" style="stop-color:#9D9D9D"/>
		<stop  offset="0.1419" style="stop-color:#777777"/>
		<stop  offset="0.195" style="stop-color:#575757"/>
		<stop  offset="0.2537" style="stop-color:#3B3B3B"/>
		<stop  offset="0.32" style="stop-color:#252525"/>
		<stop  offset="0.3974" style="stop-color:#141414"/>
		<stop  offset="0.4931" style="stop-color:#090909"/>
		<stop  offset="0.6274" style="stop-color:#020202"/>
		<stop  offset="1" style="stop-color:#000000"/>
	</linearGradient>
	<path class="st20" d="M978.53,281.39c0,0-20.17-60.39-33.18-67.76c0,0,5.99-97.58,91.38-74.52l22.75,42.51
		C1059.48,181.62,1051.87,213.09,978.53,281.39z"/>
	<linearGradient id="SVGID_11_" gradientUnits="userSpaceOnUse" x1="424.8575" y1="240.9922" x2="458.3311" y2="240.9922">
		<stop  offset="0.9709" style="stop-color:#323232"/>
		<stop  offset="0.9726" style="stop-color:#252525"/>
		<stop  offset="0.9757" style="stop-color:#141414"/>
		<stop  offset="0.9796" style="stop-color:#090909"/>
		<stop  offset="0.985" style="stop-color:#020202"/>
		<stop  offset="1" style="stop-color:#000000"/>
	</linearGradient>
	<path class="st21" d="M424.86,234.95l14.91-6.44c0,0,6.32-1.26,1.52,3.22c0,0,1.26,7.77,6.19,12.32c0,0,3.03,3.16,9.35,2.91
		c0,0,3.41,1.77,0,2.65l-23.12,4.04L424.86,234.95z"/>
	<linearGradient id="SVGID_12_" gradientUnits="userSpaceOnUse" x1="763.2476" y1="306.6198" x2="878.9629" y2="306.6198">
		<stop  offset="0.9709" style="stop-color:#323232"/>
		<stop  offset="0.9726" style="stop-color:#252525"/>
		<stop  offset="0.9757" style="stop-color:#141414"/>
		<stop  offset="0.9796" style="stop-color:#090909"/>
		<stop  offset="0.985" style="stop-color:#020202"/>
		<stop  offset="1" style="stop-color:#000000"/>
	</linearGradient>
	<path class="st22" d="M878.96,301.14c0,0-9.68-6.1-19.36,0l-81.63,3.99c0,0-7.99-4.63-14.73,0l2.1,9.68l85.88-3.99L878.96,301.14z"
		/>
	<linearGradient id="SVGID_13_" gradientUnits="userSpaceOnUse" x1="400.7822" y1="552.3208" x2="493.4196" y2="552.3208">
		<stop  offset="0.9709" style="stop-color:#323232"/>
		<stop  offset="0.9726" style="stop-color:#252525"/>
		<stop  offset="0.9757" style="stop-color:#141414"/>
		<stop  offset="0.9796" style="stop-color:#090909"/>
		<stop  offset="0.985" style="stop-color:#020202"/>
		<stop  offset="1" style="stop-color:#000000"/>
	</linearGradient>
	<path class="st23" d="M493.42,549.6c0,0-83.02-2.23-92.64-3.78l89.57,12.99L493.42,549.6z"/>
	<linearGradient id="SVGID_14_" gradientUnits="userSpaceOnUse" x1="375.7044" y1="544.4052" x2="400.7822" y2="544.4052">
		<stop  offset="0.9709" style="stop-color:#323232"/>
		<stop  offset="0.9726" style="stop-color:#252525"/>
		<stop  offset="0.9757" style="stop-color:#141414"/>
		<stop  offset="0.9796" style="stop-color:#090909"/>
		<stop  offset="0.985" style="stop-color:#020202"/>
		<stop  offset="1" style="stop-color:#000000"/>
	</linearGradient>
	<path class="st24" d="M400.78,545.82c0,0-20.64-2.31-25.08-2.84"/>
	<linearGradient id="SVGID_15_" gradientUnits="userSpaceOnUse" x1="333.7653" y1="497.3739" x2="376.3996" y2="497.3739">
		<stop  offset="0.9709" style="stop-color:#FFD200"/>
		<stop  offset="0.9712" style="stop-color:#F6CA00"/>
		<stop  offset="0.9723" style="stop-color:#C8A500"/>
		<stop  offset="0.9736" style="stop-color:#9D8100"/>
		<stop  offset="0.9751" style="stop-color:#776200"/>
		<stop  offset="0.9766" style="stop-color:#574700"/>
		<stop  offset="0.9783" style="stop-color:#3B3100"/>
		<stop  offset="0.9802" style="stop-color:#251F00"/>
		<stop  offset="0.9825" style="stop-color:#141100"/>
		<stop  offset="0.9853" style="stop-color:#090700"/>
		<stop  offset="0.9892" style="stop-color:#020200"/>
		<stop  offset="1" style="stop-color:#000000"/>
	</linearGradient>
	<path class="st25" d="M333.77,530.72l19.42-41.98c0,0-1.61-17.21,7.74-24.63c0,0,10.64-0.97,15.48,3.87c0,0-6.71,14.8-23.22,20.76"
		/>
	<linearGradient id="SVGID_16_" gradientUnits="userSpaceOnUse" x1="369.7815" y1="447.0397" x2="399.0898" y2="447.0397">
		<stop  offset="0.9709" style="stop-color:#323232"/>
		<stop  offset="0.9726" style="stop-color:#252525"/>
		<stop  offset="0.9757" style="stop-color:#141414"/>
		<stop  offset="0.9796" style="stop-color:#090909"/>
		<stop  offset="0.985" style="stop-color:#020202"/>
		<stop  offset="1" style="stop-color:#000000"/>
	</linearGradient>
	<line class="st26" x1="369.78" y1="464.44" x2="399.09" y2="429.64"/>
	<path class="st27" d="M362.11,467.19c0,0,7-1.97,10.5,2.62"/>
	<path class="st28" d="M355.08,479.06l7.03-7.56c0,0,2.24-0.49,2.9,0c0,0,0.08-1.89-0.33-2.14c-0.41-0.25,2.4-0.82,2.68,2.96
		c0,0-1.2,4.76-3.74,6.08C363.61,478.4,359.7,479.39,355.08,479.06z"/>
	<polygon class="st29" points="1133.96,157.99 1080.87,151.9 1088.19,147.83 1113.24,148.79 	"/>
	<path d="M1205.01,225.95c0,0,1.43-34.93-12.87-30.69c0,0,8-11.08,12.25-10.74c0,0,4.17-0.63,4,12.5
		C1208.39,197.03,1207.31,215.79,1205.01,225.95z"/>
	<path d="M1196.98,152.91l-11.53-3.52l-7.34,11.53l23.85,5.71c0,0,4.2,3.46-9.83,16.04l-16.64,15.73c0,0,17.57-22.02,19.39-27.52
		l-19.39-7.38l2.48-9.12c0.26-0.97,0.3-1.99,0.11-2.98l-1.02-5.16C1177.06,146.25,1192.26,147.78,1196.98,152.91z"/>
	<path d="M1069.48,114.56l24.39-2.15l51.84,16.94l3.68,15.27C1149.39,144.63,1092.95,116.4,1069.48,114.56z"/>
	<linearGradient id="SVGID_17_" gradientUnits="userSpaceOnUse" x1="966.4396" y1="89.9583" x2="977.0068" y2="89.9583">
		<stop  offset="0.9709" style="stop-color:#323232"/>
		<stop  offset="0.9726" style="stop-color:#252525"/>
		<stop  offset="0.9757" style="stop-color:#141414"/>
		<stop  offset="0.9796" style="stop-color:#090909"/>
		<stop  offset="0.985" style="stop-color:#020202"/>
		<stop  offset="1" style="stop-color:#000000"/>
	</linearGradient>
	<line class="st30" x1="966.44" y1="90.15" x2="977.01" y2="89.77"/>
	<linearGradient id="SVGID_18_" gradientUnits="userSpaceOnUse" x1="1093.8733" y1="95.1203" x2="1104.2933" y2="95.1203">
		<stop  offset="0.9709" style="stop-color:#323232"/>
		<stop  offset="0.9726" style="stop-color:#252525"/>
		<stop  offset="0.9757" style="stop-color:#141414"/>
		<stop  offset="0.9796" style="stop-color:#090909"/>
		<stop  offset="0.985" style="stop-color:#020202"/>
		<stop  offset="1" style="stop-color:#000000"/>
	</linearGradient>
	<line class="st31" x1="1093.87" y1="94.55" x2="1104.29" y2="95.69"/>
	<path class="st8" d="M694.28,499.62c0,0,122.71-32.62,200.1-87.57"/>
	<path class="st32" d="M1089.98,239.42c0,0-29.65,125.33-104.68,192.98"/>
	<path d="M1120.58,305.81c0.12,0,0.23,0,0.33,0.01c2.47,0.1,5,0.77,7.44,0.44c0.9-0.12,1.69,0.1,2.35,0.52
		c0.31-0.39,0.48-0.62,0.48-0.62c17.2-39.55,24.57-95.6,24.57-95.6l-17.1-4.16l-19.41,83.38
		C1125,291.71,1123.35,299.59,1120.58,305.81z"/>
	<g>
		<polygon class="st33" points="1095.91,342.55 1095.91,342.55 971.04,457.75 		"/>
		<path class="st33" d="M1139.52,206.9L1139.52,206.9c-4.61-0.54-9.63-0.75-14.19-0.13l-23.2,20.57c0,0-16.88,79.1-24.43,92.64
			l18.82,10.2c1.98,1.07,2.85,3.46,2.02,5.56c-0.7,1.78-1.62,4.11-2.63,6.82l5.29-4.88l28.94-31.06l20.94-89.4L1139.52,206.9z"/>
	</g>
	<path class="st32" d="M981.87,291.98c0,0,8.85,26.48,6.44,46.61l179.5-175.08"/>
</g>
</svg>
