<?xml version="1.0" encoding="utf-8"?>
<!-- Generator: Adobe Illustrator 24.0.0, SVG Export Plug-In . SVG Version: 6.00 Build 0)  -->
<svg version="1.1" id="Layer_1" xmlns="http://www.w3.org/2000/svg" xmlns:xlink="http://www.w3.org/1999/xlink" x="0px" y="0px"
	 viewBox="0 0 1366 768" style="enable-background:new 0 0 1366 768;" xml:space="preserve">
<style type="text/css">
	.st0{fill:#FF1515;stroke:#000000;stroke-width:5;stroke-miterlimit:10;}
	.st1{fill:#707070;stroke:#000000;stroke-width:5;stroke-miterlimit:10;}
	.st2{fill:#666666;stroke:#000000;stroke-width:5;stroke-miterlimit:10;}
	.st3{fill:#4D4D4D;stroke:#000000;stroke-width:5;stroke-miterlimit:10;}
	.st4{fill:#737373;stroke:#000000;stroke-width:3;stroke-miterlimit:10;}
	.st5{fill:#FF0000;stroke:#000000;stroke-width:5;stroke-miterlimit:10;}
	.st6{fill:#383838;stroke:#000000;stroke-width:5;stroke-miterlimit:10;}
	.st7{fill:url(#SVGID_1_);stroke:#000000;stroke-width:5;stroke-miterlimit:10;}
	.st8{fill:none;stroke:#000000;stroke-width:5;stroke-miterlimit:10;}
	.st9{fill:url(#SVGID_2_);stroke:#000000;stroke-width:5;stroke-miterlimit:10;}
	.st10{fill:url(#SVGID_3_);stroke:#000000;stroke-width:5;stroke-miterlimit:10;}
	.st11{fill:#454545;stroke:#000000;stroke-width:5;stroke-miterlimit:10;}
	.st12{fill:#B90000;stroke:#FF0000;stroke-width:18;stroke-miterlimit:10;}
	.st13{fill:#FF1515;stroke:#000000;stroke-width:3;stroke-miterlimit:10;}
	.st14{fill:#24CA24;stroke:#000000;stroke-width:5;stroke-miterlimit:10;}
</style>
<polyline class="st0" points="378.35,92.31 146.76,43.55 138.03,16.69 101.56,43.17 0,48.6 0,268.72 "/>
<polygon class="st1" points="171.01,410.73 381.47,547.97 384.93,429.67 278.96,360.13 "/>
<g>
	<polyline class="st2" points="291.19,352.82 344.48,345.88 289.87,414.95 	"/>
	
		<ellipse transform="matrix(0.1505 -0.9886 0.9886 0.1505 -147.0406 729.846)" class="st2" cx="351.14" cy="450.48" rx="105.95" ry="89.54"/>
	<polyline class="st2" points="357.52,555.41 304.23,562.35 358.84,493.28 	"/>
	
		<ellipse transform="matrix(0.1436 -0.9896 0.9896 0.1436 -198.1245 685.5836)" class="st3" cx="297.05" cy="457.26" rx="106.28" ry="89.58"/>
	
		<ellipse transform="matrix(0.1547 -0.988 0.988 0.1547 -203.1133 680.067)" class="st2" cx="295.87" cy="458.73" rx="92.04" ry="77.9"/>
</g>
<path class="st0" d="M682.94,316.39L533.3,385.3c0,0-313.51-90.14-365.17-82.02L21.56,313.28l-21.79-21.34v-91.73l38.06-45.19
	l580.61-46.25l79.36,204.51"/>
<path class="st4" d="M1367.37,431.41V303.29l-209.44,111.74L533.3,385.3l60.09,135.3L533.3,646.97l624.63-101.1l209.47-23.77v-89.51
	C1367.39,432.19,1367.37,431.8,1367.37,431.41z"/>
<polygon class="st5" points="357.83,240.53 683,313.28 1107.05,340.82 1249.01,205.13 1055.89,59.61 854.26,75.91 603.63,100.16 "/>
<line class="st6" x1="1249.01" y1="205.13" x2="683" y2="313.28"/>
<linearGradient id="SVGID_1_" gradientUnits="userSpaceOnUse" x1="625.795" y1="181.4687" x2="1214.6487" y2="181.4687">
	<stop  offset="0" style="stop-color:#FFFFFF"/>
	<stop  offset="0.0685" style="stop-color:#D6D6D6"/>
	<stop  offset="0.1629" style="stop-color:#A4A4A4"/>
	<stop  offset="0.2621" style="stop-color:#787878"/>
	<stop  offset="0.3644" style="stop-color:#535353"/>
	<stop  offset="0.4706" style="stop-color:#353535"/>
	<stop  offset="0.5819" style="stop-color:#1E1E1E"/>
	<stop  offset="0.7006" style="stop-color:#0D0D0D"/>
	<stop  offset="0.8318" style="stop-color:#030303"/>
	<stop  offset="1" style="stop-color:#000000"/>
</linearGradient>
<polygon class="st7" points="625.8,120.06 691.41,288.3 1214.65,192.4 1055.89,74.63 862.94,85.74 "/>
<polygon class="st5" points="1367.37,223.9 1249.01,205.13 1107.05,340.82 690.06,313.28 625.8,342.81 533.3,385.3 1157.93,415.03 
	1367.37,319.06 "/>
<polyline class="st8" points="1107.05,340.82 1157.93,415.03 1172.29,475.13 1157.93,545.87 "/>
<path class="st5" d="M690.06,313.28l-86.43-213.13c0,0-138.85-22.66-197.99-13.01l267.79-22.62l144.94-23.24
	c0,0,168.48,0.43,237.51,18.32l-201.63,16.3l-250.62,24.25"/>
<linearGradient id="SVGID_2_" gradientUnits="userSpaceOnUse" x1="396.6429" y1="203.4001" x2="659.8327" y2="203.4001">
	<stop  offset="0" style="stop-color:#FFFFFF"/>
	<stop  offset="0.0685" style="stop-color:#D6D6D6"/>
	<stop  offset="0.1629" style="stop-color:#A4A4A4"/>
	<stop  offset="0.2621" style="stop-color:#787878"/>
	<stop  offset="0.3644" style="stop-color:#535353"/>
	<stop  offset="0.4706" style="stop-color:#353535"/>
	<stop  offset="0.5819" style="stop-color:#1E1E1E"/>
	<stop  offset="0.7006" style="stop-color:#0D0D0D"/>
	<stop  offset="0.8318" style="stop-color:#030303"/>
	<stop  offset="1" style="stop-color:#000000"/>
</linearGradient>
<polygon class="st9" points="396.64,236.76 597.07,118.5 659.83,288.3 "/>
<path class="st5" d="M603.63,100.16L357.83,240.53l-313.28-85.5l361.1-67.87C405.65,87.15,468,68.86,603.63,100.16z"/>
<linearGradient id="SVGID_3_" gradientUnits="userSpaceOnUse" x1="109.9515" y1="158.3011" x2="558.0594" y2="158.3011">
	<stop  offset="0" style="stop-color:#FFFFFF"/>
	<stop  offset="0.0685" style="stop-color:#D6D6D6"/>
	<stop  offset="0.1629" style="stop-color:#A4A4A4"/>
	<stop  offset="0.2621" style="stop-color:#787878"/>
	<stop  offset="0.3644" style="stop-color:#535353"/>
	<stop  offset="0.4706" style="stop-color:#353535"/>
	<stop  offset="0.5819" style="stop-color:#1E1E1E"/>
	<stop  offset="0.7006" style="stop-color:#0D0D0D"/>
	<stop  offset="0.8318" style="stop-color:#030303"/>
	<stop  offset="1" style="stop-color:#000000"/>
</linearGradient>
<path class="st10" d="M109.95,157.18l243.88,63.45l204.23-106.08L445.04,96.7C445.04,96.7,453.96,84.81,109.95,157.18z"/>
<polyline class="st5" points="357.83,240.53 61.31,303.27 0,268.72 -0.23,200.21 37.83,155.02 "/>
<polygon class="st11" points="239.08,244.13 220.21,246.33 206.53,233.14 211.72,217.76 230.59,215.57 244.27,228.75 "/>
<line class="st11" x1="219.56" y1="227.15" x2="231.13" y2="234.25"/>
<line class="st5" x1="673.43" y1="64.53" x2="854.26" y2="75.91"/>
<path class="st5" d="M810.66,79.43"/>
<path class="st6" d="M533.3,385.3c0,0-271.83-76.31-379.98-82.02L21.56,313.28l149.45,97.45l107.95-50.61l105.96,69.55l-0.36,12.44
	c0.18,0.89,0.28,1.8,0.28,2.74c0,1.19-0.17,2.34-0.46,3.45l-2.91,99.67l151.83,99l60.09-126.38L533.3,385.3z"/>
<path class="st6" d="M384.84,444.99c0,0.02,0,0.04,0,0.06c37.17,13.47,74.38,26.93,111.65,40.41L384.84,444.99z"/>
<path class="st6" d="M496.48,485.46l96.91,35.13C561.04,508.83,528.75,497.14,496.48,485.46z"/>
<path class="st6" d="M21.56,313.28C49,323,75,332,102,342c41,15,82,30,123.12,45.08"/>
<polyline class="st8" points="593.39,520.59 617.71,521.61 820.17,505.62 993.23,491.94 1118.55,482.04 1196.52,472.72 
	1301.49,438.38 1367.4,402.26 "/>
<polygon class="st12" points="745.64,445.41 656.9,452.42 617.71,521.61 667.27,583.78 756.02,576.77 795.2,507.59 "/>
<polygon class="st12" points="937.47,442.5 863.42,448.35 830.73,506.08 872.08,557.96 946.13,552.11 978.82,494.38 "/>
<polygon class="st12" points="1104.68,434.95 1042.02,439.9 1014.35,488.75 1049.35,532.65 1112.01,527.7 1139.67,478.85 "/>
<polygon class="st12" points="1236.03,504.69 1288.52,487.52 1301.49,438.38 1261.98,406.4 1209.49,423.57 1196.52,472.72 "/>
<polygon class="st12" points="1373.79,468.68 1426.28,451.51 1435.72,391.57 1392.68,348.81 1340.19,365.98 1330.75,425.92 "/>
<polyline class="st0" points="101.56,43.17 140.75,64.53 146.76,43.55 "/>
<line class="st13" x1="138.03" y1="16.69" x2="140.75" y2="64.53"/>
<line class="st14" x1="44.55" y1="155.02" x2="0" y2="130.71"/>
<line class="st8" x1="168.13" y1="303.27" x2="378.35" y2="247.03"/>
<path class="st8" d="M619.1,345.88"/>
<path class="st8" d="M289.87,270.7"/>
<line class="st8" x1="207.46" y1="124.4" x2="0" y2="59.61"/>
</svg>
