<?xml version="1.0" encoding="utf-8"?>
<!-- Generator: Adobe Illustrator 24.0.0, SVG Export Plug-In . SVG Version: 6.00 Build 0)  -->
<svg version="1.1" id="Layer_1" xmlns="http://www.w3.org/2000/svg" xmlns:xlink="http://www.w3.org/1999/xlink" x="0px" y="0px"
	 viewBox="0 0 1000 1000" style="enable-background:new 0 0 1000 1000;" xml:space="preserve">
<style type="text/css">
	.st0{fill:#4D4D4D;stroke:#000BB2;stroke-width:6;stroke-miterlimit:10;}
	.st1{fill:#2D00E7;stroke:#000BB2;stroke-width:6;stroke-miterlimit:10;}
</style>
<polygon class="st0" points="508,152 960.5,152.5 640,350 508,906.67 "/>
<polygon class="st0" points="489.5,151.5 37,152 357.5,349.5 489.5,906.17 "/>
<path class="st1" d="M731.33,151.48H508v392.28h223.33L843,347.62L731.33,151.48z M696.13,449.47H580V245.49h116.13l58.06,101.99
	L696.13,449.47z"/>
<path class="st1" d="M729.88,544.04H508V932h221.88l110.94-193.98L729.88,544.04z M696.37,832.34H581V630.61h115.37l57.69,100.87
	L696.37,832.34z"/>
<path class="st1" d="M367,504"/>
<path class="st1" d="M82,504"/>
<path class="st1" d="M383,633"/>
<path class="st1" d="M87,633"/>
<path class="st1" d="M433,906"/>
<path class="st1" d="M97,906"/>
<path class="st1" d="M452,906"/>
<path class="st1" d="M82,906"/>
<path class="st1" d="M82,388"/>
<path class="st1" d="M337,388"/>
<path class="st1" d="M82,296"/>
<path class="st1" d="M230,296"/>
</svg>
