<?xml version="1.0" encoding="utf-8"?>
<!-- Generator: Adobe Illustrator 24.0.0, SVG Export Plug-In . SVG Version: 6.00 Build 0)  -->
<svg version="1.1" id="Layer_1" xmlns="http://www.w3.org/2000/svg" xmlns:xlink="http://www.w3.org/1999/xlink" x="0px" y="0px"
	 viewBox="0 0 1000 1000" style="enable-background:new 0 0 1000 1000;" xml:space="preserve">
<style type="text/css">
	.st0{opacity:0.14;fill:#00AEEF;}
	.st1{opacity:0.17;fill:#00AEEF;}
	.st2{fill:#00AEEF;stroke:#004D6D;stroke-width:3;stroke-miterlimit:10;}
	.st3{fill:#A7A9AC;stroke:#6D6E71;stroke-width:3;stroke-miterlimit:10;}
	.st4{fill:#808285;stroke:#6D6E71;stroke-width:5;stroke-miterlimit:10;}
	.st5{fill:#A7A9AC;stroke:#6D6E71;stroke-width:5;stroke-miterlimit:10;}
	.st6{fill:#6D6E71;stroke:#6D6E71;stroke-miterlimit:10;}
	.st7{fill:#808285;stroke:#58595B;stroke-width:3;stroke-miterlimit:10;}
	.st8{fill:#C9CACC;stroke:#58595B;stroke-width:2;stroke-miterlimit:10;}
	.st9{fill:#5C5D60;stroke:#58595B;stroke-width:2;stroke-miterlimit:10;}
	.st10{fill:#0098DD;}
	.st11{fill:#0081C8;}
	.st12{fill:#D95F29;}
	.st13{fill:#D62229;}
	.st14{fill:#0094D9;}
	.st15{fill:#0069B5;}
	.st16{fill:#F15A22;}
	.st17{fill:#DF2027;}
</style>
<polygon class="st0" points="796.1,163.86 731.11,69.61 601.11,69.61 536.12,163.86 601.11,258.1 536.12,352.35 611.7,446.59 
	639.57,471.11 699.22,471.11 722.94,446.59 796.1,352.35 731.11,258.1 "/>
<polygon class="st1" points="67.22,69.61 584.65,69.61 381.12,186.92 347.46,584.95 277.79,186.92 "/>
<polygon class="st2" points="93.26,71.57 558.61,71.57 375.57,169.09 345.29,500 282.64,169.09 "/>
<g>
	<g>
		<g>
			<path class="st3" d="M707.3,481.86h-8.31v99.47c2.48,8.5,3.81,17.49,3.81,26.79c0,52.78-42.79,95.57-95.57,95.57
				c-3.58,0-7.11-0.2-10.58-0.59h-78.53v5.28h-12.9V660.3h12.9v5.28h12.75c-12.05-15.99-19.2-35.89-19.2-57.46
				c0-52.78,42.79-95.57,95.57-95.57c11.46,0,22.46,2.02,32.64,5.72v-36.41h-8.31v-20.32h75.74V481.86z"/>
			<circle class="st4" cx="606.26" cy="606.87" r="56.8"/>
			<circle class="st5" cx="606.26" cy="606.87" r="41.59"/>
			<circle class="st6" cx="606.26" cy="606.87" r="4.97"/>
			
				<rect x="659.27" y="433.83" transform="matrix(6.123234e-17 -1 1 6.123234e-17 197.7327 1141.1257)" class="st7" width="20.32" height="75.74"/>
			<path class="st8" d="M636.84,602.5C636.84,602.5,636.84,602.5,636.84,602.5L636.84,602.5c3.87,0.01,6.98,1.96,6.96,4.37
				c-0.02,2.38-3.1,4.32-6.92,4.37v0c0,0,0,0-0.01,0c-0.05,0-0.09,0-0.14,0c-0.11,0-0.22-0.03-0.32-0.09
				c-7.48-1.41-14.96-2.81-22.44-4.22c7.52-1.46,15.05-2.92,22.57-4.38c0.08-0.04,0.17-0.06,0.26-0.06
				C636.82,602.5,636.83,602.5,636.84,602.5z"/>
			<path class="st8" d="M624.26,583.2C624.26,583.2,624.26,583.2,624.26,583.2L624.26,583.2c2.74-2.73,6.32-3.55,8.01-1.83
				c1.67,1.7,0.86,5.25-1.8,7.98l0,0c0,0,0,0-0.01,0c-0.03,0.03-0.06,0.07-0.1,0.1c-0.08,0.08-0.18,0.13-0.29,0.16
				c-6.28,4.3-12.57,8.59-18.85,12.89c4.29-6.35,8.58-12.7,12.87-19.05c0.03-0.09,0.08-0.16,0.15-0.23
				C624.24,583.21,624.25,583.21,624.26,583.2z"/>
			<path class="st8" d="M601.89,577C601.89,577,601.89,577,601.89,577L601.89,577c0.01-3.87,1.96-6.98,4.37-6.96
				c2.38,0.02,4.32,3.1,4.37,6.92h0c0,0,0,0,0,0.01c0,0.05,0,0.09,0,0.14c0,0.11-0.03,0.22-0.09,0.32
				c-1.41,7.48-2.81,14.96-4.22,22.44c-1.46-7.52-2.92-15.05-4.38-22.57c-0.04-0.08-0.06-0.17-0.06-0.26
				C601.89,577.02,601.89,577.01,601.89,577z"/>
			<path class="st8" d="M582.58,589.41C582.58,589.41,582.58,589.41,582.58,589.41L582.58,589.41c-2.73-2.74-3.55-6.32-1.83-8.01
				c1.7-1.67,5.25-0.86,7.98,1.8l0,0c0,0,0,0,0,0.01c0.03,0.03,0.07,0.06,0.1,0.1c0.08,0.08,0.13,0.18,0.16,0.29
				c4.3,6.28,8.59,12.57,12.89,18.85c-6.35-4.29-12.7-8.58-19.05-12.87c-0.09-0.03-0.16-0.08-0.23-0.15
				C582.6,589.42,582.59,589.42,582.58,589.41z"/>
			<path class="st8" d="M575.67,611.24C575.67,611.24,575.67,611.24,575.67,611.24L575.67,611.24c-3.87-0.01-6.98-1.96-6.96-4.37
				c0.02-2.38,3.1-4.32,6.92-4.37v0c0,0,0,0,0.01,0c0.05,0,0.09,0,0.14,0c0.11,0,0.22,0.03,0.32,0.09
				c7.48,1.41,14.96,2.81,22.44,4.22c-7.52,1.46-15.05,2.92-22.57,4.38c-0.08,0.04-0.17,0.06-0.26,0.06
				C575.69,611.24,575.68,611.24,575.67,611.24z"/>
			<path class="st8" d="M588.79,630.54C588.79,630.54,588.79,630.55,588.79,630.54L588.79,630.54c-2.74,2.73-6.32,3.55-8.01,1.83
				c-1.67-1.7-0.86-5.25,1.8-7.98l0,0c0,0,0,0,0.01,0c0.03-0.03,0.06-0.07,0.1-0.1c0.08-0.08,0.18-0.13,0.29-0.16
				c6.28-4.3,12.57-8.59,18.85-12.89c-4.29,6.35-8.58,12.7-12.87,19.05c-0.03,0.09-0.08,0.16-0.15,0.23
				C588.81,630.53,588.8,630.54,588.79,630.54z"/>
			<path class="st8" d="M610.62,637.26C610.62,637.27,610.62,637.27,610.62,637.26L610.62,637.26c-0.01,3.87-1.96,6.98-4.37,6.96
				c-2.38-0.02-4.32-3.1-4.37-6.92l0,0c0,0,0,0,0-0.01c0-0.05,0-0.09,0-0.14c0-0.11,0.03-0.22,0.09-0.32
				c1.41-7.48,2.81-14.96,4.22-22.44c1.46,7.52,2.92,15.05,4.38,22.57c0.04,0.08,0.06,0.17,0.06,0.26
				C610.62,637.25,610.62,637.25,610.62,637.26z"/>
			<path class="st8" d="M629.99,624.33C629.99,624.34,629.99,624.34,629.99,624.33L629.99,624.33c2.73,2.74,3.55,6.32,1.83,8.01
				c-1.7,1.67-5.25,0.86-7.98-1.8l0,0c0,0,0,0,0-0.01c-0.03-0.03-0.07-0.06-0.1-0.1c-0.08-0.08-0.13-0.18-0.16-0.29
				c-4.3-6.28-8.59-12.57-12.89-18.85c6.35,4.29,12.7,8.58,19.05,12.87c0.09,0.03,0.16,0.08,0.23,0.15
				C629.97,624.32,629.98,624.33,629.99,624.33z"/>
			<path class="st9" d="M632.27,591.83C632.27,591.83,632.27,591.83,632.27,591.83L632.27,591.83c2.74-1.15,5.67-0.36,6.57,1.78
				c0.89,2.12-0.55,4.77-3.22,5.96l0,0c0,0,0,0-0.01,0c-0.03,0.01-0.06,0.03-0.1,0.04c-0.08,0.03-0.17,0.04-0.26,0.02
				c-5.82,1-11.63,2-17.45,3c4.76-3.56,9.52-7.11,14.28-10.67c0.04-0.06,0.1-0.1,0.16-0.13
				C632.26,591.84,632.26,591.84,632.27,591.83z"/>
			<path class="st9" d="M613.41,577.84C613.41,577.84,613.41,577.84,613.41,577.84L613.41,577.84c1.12-2.75,3.76-4.26,5.91-3.39
				c2.13,0.87,2.98,3.76,1.93,6.49l0,0c0,0,0,0,0,0c-0.01,0.03-0.03,0.07-0.04,0.1c-0.03,0.08-0.09,0.15-0.17,0.2
				c-3.41,4.82-6.81,9.64-10.22,14.46c0.85-5.88,1.7-11.76,2.55-17.64c-0.01-0.07,0-0.14,0.02-0.21
				C613.4,577.85,613.4,577.85,613.41,577.84z"/>
			<path class="st9" d="M590.48,581.14C590.48,581.14,590.48,581.14,590.48,581.14L590.48,581.14c-1.15-2.74-0.36-5.67,1.78-6.57
				c2.12-0.89,4.77,0.55,5.96,3.22l0,0c0,0,0,0,0,0.01c0.01,0.03,0.03,0.06,0.04,0.1c0.03,0.08,0.04,0.17,0.02,0.26
				c1,5.82,2,11.63,3,17.45c-3.56-4.76-7.11-9.52-10.67-14.28c-0.06-0.04-0.1-0.1-0.13-0.16
				C590.49,581.16,590.48,581.15,590.48,581.14z"/>
			<path class="st9" d="M576.83,598.46C576.83,598.46,576.83,598.46,576.83,598.46L576.83,598.46c-2.75-1.12-4.26-3.76-3.39-5.91
				c0.87-2.13,3.76-2.98,6.49-1.93l0,0c0,0,0,0,0,0c0.03,0.01,0.07,0.03,0.1,0.04c0.08,0.03,0.15,0.09,0.2,0.17
				c4.82,3.41,9.64,6.81,14.46,10.22c-5.88-0.85-11.76-1.7-17.64-2.55c-0.07,0.01-0.14,0-0.21-0.02
				C576.85,598.47,576.84,598.46,576.83,598.46z"/>
			<path class="st9" d="M580.14,621.73C580.14,621.73,580.14,621.73,580.14,621.73L580.14,621.73c-2.74,1.15-5.67,0.36-6.57-1.78
				c-0.89-2.12,0.55-4.77,3.22-5.96l0,0c0,0,0,0,0.01,0c0.03-0.01,0.06-0.03,0.1-0.04c0.08-0.03,0.17-0.04,0.26-0.02
				c5.82-1,11.63-2,17.45-3c-4.76,3.56-9.52,7.11-14.28,10.67c-0.04,0.06-0.1,0.1-0.16,0.13
				C580.15,621.72,580.15,621.72,580.14,621.73z"/>
			<path class="st9" d="M598.47,636.43C598.47,636.43,598.47,636.43,598.47,636.43L598.47,636.43c-1.12,2.75-3.76,4.26-5.91,3.39
				c-2.13-0.87-2.98-3.76-1.93-6.49l0,0c0,0,0,0,0,0c0.01-0.03,0.03-0.07,0.04-0.1c0.03-0.08,0.09-0.15,0.17-0.2
				c3.41-4.82,6.81-9.64,10.22-14.46c-0.85,5.88-1.7,11.76-2.55,17.64c0.01,0.07,0,0.14-0.02,0.21
				C598.48,636.41,598.48,636.42,598.47,636.43z"/>
			<path class="st9" d="M621.4,633.12C621.4,633.12,621.4,633.13,621.4,633.12L621.4,633.12c1.15,2.74,0.36,5.67-1.78,6.57
				c-2.12,0.89-4.77-0.55-5.96-3.22l0,0c0,0,0,0,0-0.01c-0.01-0.03-0.03-0.06-0.04-0.1c-0.03-0.08-0.04-0.17-0.02-0.26
				c-1-5.82-2-11.63-3-17.45c3.56,4.76,7.11,9.52,10.67,14.28c0.06,0.04,0.1,0.1,0.13,0.16C621.4,633.11,621.4,633.12,621.4,633.12z
				"/>
			<path class="st9" d="M636,613.73C636,613.73,636,613.73,636,613.73L636,613.73c2.75,1.12,4.26,3.76,3.39,5.91
				c-0.87,2.13-3.76,2.98-6.49,1.93l0,0c0,0,0,0,0,0c-0.03-0.01-0.07-0.03-0.1-0.04c-0.08-0.03-0.15-0.09-0.2-0.17
				c-4.82-3.41-9.64-6.81-14.46-10.22c5.88,0.85,11.76,1.7,17.64,2.55c0.07-0.01,0.14,0,0.21,0.02
				C635.99,613.73,635.99,613.73,636,613.73z"/>
		</g>
		<g>
			<path class="st3" d="M303.12,481.86h8.31v99.47c-2.48,8.5-3.81,17.49-3.81,26.79c0,52.78,42.79,95.57,95.57,95.57
				c3.58,0,7.11-0.2,10.58-0.59h78.53v5.28h12.9V660.3h-12.9v5.28h-12.75c12.05-15.99,19.2-35.89,19.2-57.46
				c0-52.78-42.79-95.57-95.57-95.57c-11.46,0-22.46,2.02-32.64,5.72v-36.41h8.31v-20.32h-75.74V481.86z"/>
			<circle class="st4" cx="404.17" cy="606.87" r="56.8"/>
			<circle class="st5" cx="404.17" cy="606.87" r="41.59"/>
			<circle class="st6" cx="404.17" cy="606.87" r="4.97"/>
			
				<rect x="330.83" y="433.83" transform="matrix(6.123234e-17 -1 1 6.123234e-17 -130.7029 812.6901)" class="st7" width="20.32" height="75.74"/>
			<path class="st8" d="M373.59,602.5C373.58,602.5,373.58,602.5,373.59,602.5L373.59,602.5c-3.87,0.01-6.98,1.96-6.96,4.37
				c0.02,2.38,3.1,4.32,6.92,4.37l0,0c0,0,0,0,0.01,0c0.05,0,0.09,0,0.14,0c0.11,0,0.22-0.03,0.32-0.09
				c7.48-1.41,14.96-2.81,22.44-4.22c-7.52-1.46-15.05-2.92-22.57-4.38c-0.08-0.04-0.17-0.06-0.26-0.06
				C373.6,602.5,373.59,602.5,373.59,602.5z"/>
			<path class="st8" d="M386.17,583.2C386.16,583.2,386.16,583.2,386.17,583.2L386.17,583.2c-2.74-2.73-6.32-3.55-8.01-1.83
				c-1.67,1.7-0.86,5.25,1.8,7.98l0,0c0,0,0,0,0.01,0c0.03,0.03,0.06,0.07,0.1,0.1c0.08,0.08,0.18,0.13,0.29,0.16
				c6.28,4.3,12.57,8.59,18.85,12.89c-4.29-6.35-8.58-12.7-12.87-19.05c-0.03-0.09-0.08-0.16-0.15-0.23
				C386.18,583.21,386.17,583.21,386.17,583.2z"/>
			<path class="st8" d="M408.54,577C408.54,577,408.54,577,408.54,577L408.54,577c-0.01-3.87-1.96-6.98-4.37-6.96
				c-2.38,0.02-4.32,3.1-4.37,6.92h0c0,0,0,0,0,0.01c0,0.05,0,0.09,0,0.14c0,0.11,0.03,0.22,0.09,0.32
				c1.41,7.48,2.81,14.96,4.22,22.44c1.46-7.52,2.92-15.05,4.38-22.57c0.04-0.08,0.06-0.17,0.06-0.26
				C408.54,577.02,408.54,577.01,408.54,577z"/>
			<path class="st8" d="M427.84,589.41C427.84,589.41,427.84,589.41,427.84,589.41L427.84,589.41c2.73-2.74,3.55-6.32,1.83-8.01
				c-1.7-1.67-5.25-0.86-7.98,1.8l0,0c0,0,0,0,0,0.01c-0.03,0.03-0.07,0.06-0.1,0.1c-0.08,0.08-0.13,0.18-0.16,0.29
				c-4.3,6.28-8.59,12.57-12.89,18.85c6.35-4.29,12.7-8.58,19.05-12.87c0.09-0.03,0.16-0.08,0.23-0.15
				C427.82,589.42,427.83,589.42,427.84,589.41z"/>
			<path class="st8" d="M434.75,611.24C434.75,611.24,434.75,611.24,434.75,611.24L434.75,611.24c3.87-0.01,6.98-1.96,6.96-4.37
				c-0.02-2.38-3.1-4.32-6.92-4.37v0c0,0,0,0-0.01,0c-0.05,0-0.09,0-0.14,0c-0.11,0-0.22,0.03-0.32,0.09
				c-7.48,1.41-14.96,2.81-22.44,4.22c7.52,1.46,15.05,2.92,22.57,4.38c0.08,0.04,0.17,0.06,0.26,0.06
				C434.73,611.24,434.74,611.24,434.75,611.24z"/>
			<path class="st8" d="M421.63,630.54C421.63,630.54,421.63,630.55,421.63,630.54L421.63,630.54c2.74,2.73,6.32,3.55,8.01,1.83
				c1.67-1.7,0.86-5.25-1.8-7.98l0,0c0,0,0,0-0.01,0c-0.03-0.03-0.06-0.07-0.1-0.1c-0.08-0.08-0.18-0.13-0.29-0.16
				c-6.28-4.3-12.57-8.59-18.85-12.89c4.29,6.35,8.58,12.7,12.87,19.05c0.03,0.09,0.08,0.16,0.15,0.23
				C421.62,630.53,421.62,630.54,421.63,630.54z"/>
			<path class="st8" d="M399.8,637.26C399.8,637.27,399.8,637.27,399.8,637.26L399.8,637.26c0.01,3.87,1.96,6.98,4.37,6.96
				c2.38-0.02,4.32-3.1,4.37-6.92l0,0c0,0,0,0,0-0.01c0-0.05,0-0.09,0-0.14c0-0.11-0.03-0.22-0.09-0.32
				c-1.41-7.48-2.81-14.96-4.22-22.44c-1.46,7.52-2.92,15.05-4.38,22.57c-0.04,0.08-0.06,0.17-0.06,0.26
				C399.8,637.25,399.8,637.25,399.8,637.26z"/>
			<path class="st8" d="M380.44,624.33C380.44,624.34,380.43,624.34,380.44,624.33L380.44,624.33c-2.73,2.74-3.55,6.32-1.83,8.01
				c1.7,1.67,5.25,0.86,7.98-1.8l0,0c0,0,0,0,0-0.01c0.03-0.03,0.07-0.06,0.1-0.1c0.08-0.08,0.13-0.18,0.16-0.29
				c4.3-6.28,8.59-12.57,12.89-18.85c-6.35,4.29-12.7,8.58-19.05,12.87c-0.09,0.03-0.16,0.08-0.23,0.15
				C380.45,624.32,380.44,624.33,380.44,624.33z"/>
			<path class="st9" d="M378.15,591.83C378.15,591.83,378.15,591.83,378.15,591.83L378.15,591.83c-2.74-1.15-5.67-0.36-6.57,1.78
				c-0.89,2.12,0.55,4.77,3.22,5.96l0,0c0,0,0,0,0.01,0c0.03,0.01,0.06,0.03,0.1,0.04c0.08,0.03,0.17,0.04,0.26,0.02
				c5.82,1,11.63,2,17.45,3c-4.76-3.56-9.52-7.11-14.28-10.67c-0.04-0.06-0.1-0.1-0.16-0.13
				C378.17,591.84,378.16,591.84,378.15,591.83z"/>
			<path class="st9" d="M397.02,577.84C397.02,577.84,397.02,577.84,397.02,577.84L397.02,577.84c-1.12-2.75-3.76-4.26-5.91-3.39
				c-2.13,0.87-2.98,3.76-1.93,6.49l0,0c0,0,0,0,0,0c0.01,0.03,0.03,0.07,0.04,0.1c0.03,0.08,0.09,0.15,0.17,0.2
				c3.41,4.82,6.81,9.64,10.22,14.46c-0.85-5.88-1.7-11.76-2.55-17.64c0.01-0.07,0-0.14-0.02-0.21
				C397.02,577.85,397.02,577.85,397.02,577.84z"/>
			<path class="st9" d="M419.94,581.14C419.94,581.14,419.94,581.14,419.94,581.14L419.94,581.14c1.15-2.74,0.36-5.67-1.78-6.57
				c-2.12-0.89-4.77,0.55-5.96,3.22l0,0c0,0,0,0,0,0.01c-0.01,0.03-0.03,0.06-0.04,0.1c-0.03,0.08-0.04,0.17-0.02,0.26
				c-1,5.82-2,11.63-3,17.45c3.56-4.76,7.11-9.52,10.67-14.28c0.06-0.04,0.1-0.1,0.13-0.16
				C419.94,581.16,419.94,581.15,419.94,581.14z"/>
			<path class="st9" d="M433.59,598.46C433.59,598.46,433.59,598.46,433.59,598.46L433.59,598.46c2.75-1.12,4.26-3.76,3.39-5.91
				c-0.87-2.13-3.76-2.98-6.49-1.93l0,0c0,0,0,0,0,0c-0.03,0.01-0.07,0.03-0.1,0.04c-0.08,0.03-0.15,0.09-0.2,0.17
				c-4.82,3.41-9.64,6.81-14.46,10.22c5.88-0.85,11.76-1.7,17.64-2.55c0.07,0.01,0.14,0,0.21-0.02
				C433.57,598.47,433.58,598.46,433.59,598.46z"/>
			<path class="st9" d="M430.28,621.73C430.28,621.73,430.29,621.73,430.28,621.73L430.28,621.73c2.74,1.15,5.67,0.36,6.57-1.78
				c0.89-2.12-0.55-4.77-3.22-5.96l0,0c0,0,0,0-0.01,0c-0.03-0.01-0.06-0.03-0.1-0.04c-0.08-0.03-0.17-0.04-0.26-0.02
				c-5.82-1-11.63-2-17.45-3c4.76,3.56,9.52,7.11,14.28,10.67c0.04,0.06,0.1,0.1,0.16,0.13
				C430.27,621.72,430.28,621.72,430.28,621.73z"/>
			<path class="st9" d="M411.95,636.43C411.95,636.43,411.95,636.43,411.95,636.43L411.95,636.43c1.12,2.75,3.76,4.26,5.91,3.39
				c2.13-0.87,2.98-3.76,1.93-6.49l0,0c0,0,0,0,0,0c-0.01-0.03-0.03-0.07-0.04-0.1c-0.03-0.08-0.09-0.15-0.17-0.2
				c-3.41-4.82-6.81-9.64-10.22-14.46c0.85,5.88,1.7,11.76,2.55,17.64c-0.01,0.07,0,0.14,0.02,0.21
				C411.94,636.41,411.95,636.42,411.95,636.43z"/>
			<path class="st9" d="M389.02,633.12C389.02,633.12,389.02,633.13,389.02,633.12L389.02,633.12c-1.15,2.74-0.36,5.67,1.78,6.57
				c2.12,0.89,4.77-0.55,5.96-3.22l0,0c0,0,0,0,0-0.01c0.01-0.03,0.03-0.06,0.04-0.1c0.03-0.08,0.04-0.17,0.02-0.26
				c1-5.82,2-11.63,3-17.45c-3.56,4.76-7.11,9.52-10.67,14.28c-0.06,0.04-0.1,0.1-0.13,0.16
				C389.03,633.11,389.02,633.12,389.02,633.12z"/>
			<path class="st9" d="M374.42,613.73C374.42,613.73,374.42,613.73,374.42,613.73L374.42,613.73c-2.75,1.12-4.26,3.76-3.39,5.91
				c0.87,2.13,3.76,2.98,6.49,1.93l0,0c0,0,0,0,0,0c0.03-0.01,0.07-0.03,0.1-0.04c0.08-0.03,0.15-0.09,0.2-0.17
				c4.82-3.41,9.64-6.81,14.46-10.22c-5.88,0.85-11.76,1.7-17.64,2.55c-0.07-0.01-0.14,0-0.21,0.02
				C374.44,613.73,374.43,613.73,374.42,613.73z"/>
		</g>
	</g>
	<path class="st3" d="M520.58,648.47c0,0,17.93,45.6,76.07,54.63"/>
	<path class="st3" d="M489.86,648.47c0,0-18.38,45.6-77.97,54.63"/>
</g>
<polygon class="st2" points="775.13,163.11 722.28,71.57 616.58,71.57 563.73,163.11 616.58,254.65 563.73,346.18 625.19,437.72 
	647.85,461.54 696.35,461.54 715.64,437.72 775.13,346.18 722.28,254.65 "/>
<polygon class="st10" points="141.41,76.49 510.46,76.49 365.3,154.76 341.29,420.34 291.6,154.76 "/>
<polygon class="st11" points="201.26,79.82 456.31,79.82 355.99,142.95 339.4,357.16 305.06,142.95 "/>
<polygon class="st12" points="238.44,83.81 419.14,83.81 348.06,136.19 336.3,313.93 311.97,136.19 "/>
<polygon class="st13" points="271.63,88.46 385.94,88.46 340.98,129 333.54,266.55 318.15,129 "/>
<polygon class="st14" points="756.89,163.61 713.16,76.49 625.7,76.49 581.97,163.61 625.7,250.72 581.97,337.83 632.82,424.95 
	651.57,447.61 691.7,447.61 707.66,424.95 756.89,337.83 713.16,250.72 "/>
<polygon class="st11" points="737.15,164.09 703.29,83.81 635.57,83.81 601.71,164.09 635.57,244.37 601.71,324.66 641.08,404.94 
	655.6,425.82 686.68,425.82 699.03,404.94 737.15,324.66 703.29,244.37 "/>
<polygon class="st15" points="726.13,164.29 697.78,91.13 641.08,91.13 612.73,164.29 641.08,237.45 612.73,310.61 645.7,383.77 
	657.85,402.8 683.87,402.8 694.22,383.77 726.13,310.61 697.78,237.45 "/>
<polygon class="st16" points="711.61,158.92 690.52,95.12 648.34,95.12 627.25,158.92 648.34,222.72 627.25,286.52 651.77,350.32 
	660.82,366.91 680.17,366.91 687.87,350.32 711.61,286.52 690.52,222.72 "/>
<polygon class="st17" points="683.96,222.17 698.5,284.04 682.13,345.9 676.83,361.99 663.49,361.99 657.26,345.9 640.36,284.04 
	654.89,222.17 640.36,160.31 654.89,98.44 683.96,98.44 698.5,160.31 "/>
</svg>
